G04 EAGLE Gerber RS-274X export*
G75*
%MOMM*%
%FSLAX34Y34*%
%LPD*%
%INSilkscreen Top*%
%IPPOS*%
%AMOC8*
5,1,8,0,0,1.08239X$1,22.5*%
G01*
%ADD10C,0.152400*%
%ADD11C,0.254000*%
%ADD12C,0.127000*%
%ADD13C,0.200000*%
%ADD14C,0.076200*%
%ADD15C,0.150000*%


D10*
X435610Y231140D02*
X478790Y231140D01*
X478790Y200660D02*
X435610Y200660D01*
X481330Y203200D02*
X481330Y228600D01*
X433070Y228600D02*
X433070Y203200D01*
X478790Y231140D02*
X478890Y231138D01*
X478989Y231132D01*
X479089Y231122D01*
X479187Y231109D01*
X479286Y231091D01*
X479383Y231070D01*
X479479Y231045D01*
X479575Y231016D01*
X479669Y230983D01*
X479762Y230947D01*
X479853Y230907D01*
X479943Y230863D01*
X480031Y230816D01*
X480117Y230766D01*
X480201Y230712D01*
X480283Y230655D01*
X480362Y230595D01*
X480440Y230531D01*
X480514Y230465D01*
X480586Y230396D01*
X480655Y230324D01*
X480721Y230250D01*
X480785Y230172D01*
X480845Y230093D01*
X480902Y230011D01*
X480956Y229927D01*
X481006Y229841D01*
X481053Y229753D01*
X481097Y229663D01*
X481137Y229572D01*
X481173Y229479D01*
X481206Y229385D01*
X481235Y229289D01*
X481260Y229193D01*
X481281Y229096D01*
X481299Y228997D01*
X481312Y228899D01*
X481322Y228799D01*
X481328Y228700D01*
X481330Y228600D01*
X435610Y231140D02*
X435510Y231138D01*
X435411Y231132D01*
X435311Y231122D01*
X435213Y231109D01*
X435114Y231091D01*
X435017Y231070D01*
X434921Y231045D01*
X434825Y231016D01*
X434731Y230983D01*
X434638Y230947D01*
X434547Y230907D01*
X434457Y230863D01*
X434369Y230816D01*
X434283Y230766D01*
X434199Y230712D01*
X434117Y230655D01*
X434038Y230595D01*
X433960Y230531D01*
X433886Y230465D01*
X433814Y230396D01*
X433745Y230324D01*
X433679Y230250D01*
X433615Y230172D01*
X433555Y230093D01*
X433498Y230011D01*
X433444Y229927D01*
X433394Y229841D01*
X433347Y229753D01*
X433303Y229663D01*
X433263Y229572D01*
X433227Y229479D01*
X433194Y229385D01*
X433165Y229289D01*
X433140Y229193D01*
X433119Y229096D01*
X433101Y228997D01*
X433088Y228899D01*
X433078Y228799D01*
X433072Y228700D01*
X433070Y228600D01*
X478790Y200660D02*
X478890Y200662D01*
X478989Y200668D01*
X479089Y200678D01*
X479187Y200691D01*
X479286Y200709D01*
X479383Y200730D01*
X479479Y200755D01*
X479575Y200784D01*
X479669Y200817D01*
X479762Y200853D01*
X479853Y200893D01*
X479943Y200937D01*
X480031Y200984D01*
X480117Y201034D01*
X480201Y201088D01*
X480283Y201145D01*
X480362Y201205D01*
X480440Y201269D01*
X480514Y201335D01*
X480586Y201404D01*
X480655Y201476D01*
X480721Y201550D01*
X480785Y201628D01*
X480845Y201707D01*
X480902Y201789D01*
X480956Y201873D01*
X481006Y201959D01*
X481053Y202047D01*
X481097Y202137D01*
X481137Y202228D01*
X481173Y202321D01*
X481206Y202415D01*
X481235Y202511D01*
X481260Y202607D01*
X481281Y202704D01*
X481299Y202803D01*
X481312Y202901D01*
X481322Y203001D01*
X481328Y203100D01*
X481330Y203200D01*
X435610Y200660D02*
X435510Y200662D01*
X435411Y200668D01*
X435311Y200678D01*
X435213Y200691D01*
X435114Y200709D01*
X435017Y200730D01*
X434921Y200755D01*
X434825Y200784D01*
X434731Y200817D01*
X434638Y200853D01*
X434547Y200893D01*
X434457Y200937D01*
X434369Y200984D01*
X434283Y201034D01*
X434199Y201088D01*
X434117Y201145D01*
X434038Y201205D01*
X433960Y201269D01*
X433886Y201335D01*
X433814Y201404D01*
X433745Y201476D01*
X433679Y201550D01*
X433615Y201628D01*
X433555Y201707D01*
X433498Y201789D01*
X433444Y201873D01*
X433394Y201959D01*
X433347Y202047D01*
X433303Y202137D01*
X433263Y202228D01*
X433227Y202321D01*
X433194Y202415D01*
X433165Y202511D01*
X433140Y202607D01*
X433119Y202704D01*
X433101Y202803D01*
X433088Y202901D01*
X433078Y203001D01*
X433072Y203100D01*
X433070Y203200D01*
X459740Y215900D02*
X461010Y215900D01*
D11*
X459740Y215900D02*
X459740Y223520D01*
X459740Y215900D02*
X459740Y208280D01*
X454660Y215900D02*
X454660Y223520D01*
X454660Y215900D02*
X454660Y208280D01*
D10*
X454660Y215900D02*
X453390Y215900D01*
D12*
X446405Y234315D02*
X443865Y234315D01*
X443765Y234317D01*
X443666Y234323D01*
X443566Y234333D01*
X443468Y234346D01*
X443369Y234364D01*
X443272Y234385D01*
X443176Y234410D01*
X443080Y234439D01*
X442986Y234472D01*
X442893Y234508D01*
X442802Y234548D01*
X442712Y234592D01*
X442624Y234639D01*
X442538Y234689D01*
X442454Y234743D01*
X442372Y234800D01*
X442293Y234860D01*
X442215Y234924D01*
X442141Y234990D01*
X442069Y235059D01*
X442000Y235131D01*
X441934Y235205D01*
X441870Y235283D01*
X441810Y235362D01*
X441753Y235444D01*
X441699Y235528D01*
X441649Y235614D01*
X441602Y235702D01*
X441558Y235792D01*
X441518Y235883D01*
X441482Y235976D01*
X441449Y236070D01*
X441420Y236166D01*
X441395Y236262D01*
X441374Y236359D01*
X441356Y236458D01*
X441343Y236556D01*
X441333Y236656D01*
X441327Y236755D01*
X441325Y236855D01*
X441325Y243205D01*
X441327Y243305D01*
X441333Y243404D01*
X441343Y243504D01*
X441356Y243602D01*
X441374Y243701D01*
X441395Y243798D01*
X441420Y243894D01*
X441449Y243990D01*
X441482Y244084D01*
X441518Y244177D01*
X441558Y244268D01*
X441602Y244358D01*
X441649Y244446D01*
X441699Y244532D01*
X441753Y244616D01*
X441810Y244698D01*
X441870Y244777D01*
X441934Y244855D01*
X442000Y244929D01*
X442069Y245001D01*
X442141Y245070D01*
X442215Y245136D01*
X442293Y245200D01*
X442372Y245260D01*
X442454Y245317D01*
X442538Y245371D01*
X442624Y245421D01*
X442712Y245468D01*
X442802Y245512D01*
X442893Y245552D01*
X442986Y245588D01*
X443080Y245621D01*
X443176Y245650D01*
X443272Y245675D01*
X443369Y245696D01*
X443468Y245714D01*
X443566Y245727D01*
X443666Y245737D01*
X443765Y245743D01*
X443865Y245745D01*
X446405Y245745D01*
X450887Y243205D02*
X454062Y245745D01*
X454062Y234315D01*
X450887Y234315D02*
X457237Y234315D01*
D10*
X427990Y264160D02*
X384810Y264160D01*
X384810Y294640D02*
X427990Y294640D01*
X382270Y292100D02*
X382270Y266700D01*
X430530Y266700D02*
X430530Y292100D01*
X384810Y264160D02*
X384710Y264162D01*
X384611Y264168D01*
X384511Y264178D01*
X384413Y264191D01*
X384314Y264209D01*
X384217Y264230D01*
X384121Y264255D01*
X384025Y264284D01*
X383931Y264317D01*
X383838Y264353D01*
X383747Y264393D01*
X383657Y264437D01*
X383569Y264484D01*
X383483Y264534D01*
X383399Y264588D01*
X383317Y264645D01*
X383238Y264705D01*
X383160Y264769D01*
X383086Y264835D01*
X383014Y264904D01*
X382945Y264976D01*
X382879Y265050D01*
X382815Y265128D01*
X382755Y265207D01*
X382698Y265289D01*
X382644Y265373D01*
X382594Y265459D01*
X382547Y265547D01*
X382503Y265637D01*
X382463Y265728D01*
X382427Y265821D01*
X382394Y265915D01*
X382365Y266011D01*
X382340Y266107D01*
X382319Y266204D01*
X382301Y266303D01*
X382288Y266401D01*
X382278Y266501D01*
X382272Y266600D01*
X382270Y266700D01*
X427990Y264160D02*
X428090Y264162D01*
X428189Y264168D01*
X428289Y264178D01*
X428387Y264191D01*
X428486Y264209D01*
X428583Y264230D01*
X428679Y264255D01*
X428775Y264284D01*
X428869Y264317D01*
X428962Y264353D01*
X429053Y264393D01*
X429143Y264437D01*
X429231Y264484D01*
X429317Y264534D01*
X429401Y264588D01*
X429483Y264645D01*
X429562Y264705D01*
X429640Y264769D01*
X429714Y264835D01*
X429786Y264904D01*
X429855Y264976D01*
X429921Y265050D01*
X429985Y265128D01*
X430045Y265207D01*
X430102Y265289D01*
X430156Y265373D01*
X430206Y265459D01*
X430253Y265547D01*
X430297Y265637D01*
X430337Y265728D01*
X430373Y265821D01*
X430406Y265915D01*
X430435Y266011D01*
X430460Y266107D01*
X430481Y266204D01*
X430499Y266303D01*
X430512Y266401D01*
X430522Y266501D01*
X430528Y266600D01*
X430530Y266700D01*
X384810Y294640D02*
X384710Y294638D01*
X384611Y294632D01*
X384511Y294622D01*
X384413Y294609D01*
X384314Y294591D01*
X384217Y294570D01*
X384121Y294545D01*
X384025Y294516D01*
X383931Y294483D01*
X383838Y294447D01*
X383747Y294407D01*
X383657Y294363D01*
X383569Y294316D01*
X383483Y294266D01*
X383399Y294212D01*
X383317Y294155D01*
X383238Y294095D01*
X383160Y294031D01*
X383086Y293965D01*
X383014Y293896D01*
X382945Y293824D01*
X382879Y293750D01*
X382815Y293672D01*
X382755Y293593D01*
X382698Y293511D01*
X382644Y293427D01*
X382594Y293341D01*
X382547Y293253D01*
X382503Y293163D01*
X382463Y293072D01*
X382427Y292979D01*
X382394Y292885D01*
X382365Y292789D01*
X382340Y292693D01*
X382319Y292596D01*
X382301Y292497D01*
X382288Y292399D01*
X382278Y292299D01*
X382272Y292200D01*
X382270Y292100D01*
X427990Y294640D02*
X428090Y294638D01*
X428189Y294632D01*
X428289Y294622D01*
X428387Y294609D01*
X428486Y294591D01*
X428583Y294570D01*
X428679Y294545D01*
X428775Y294516D01*
X428869Y294483D01*
X428962Y294447D01*
X429053Y294407D01*
X429143Y294363D01*
X429231Y294316D01*
X429317Y294266D01*
X429401Y294212D01*
X429483Y294155D01*
X429562Y294095D01*
X429640Y294031D01*
X429714Y293965D01*
X429786Y293896D01*
X429855Y293824D01*
X429921Y293750D01*
X429985Y293672D01*
X430045Y293593D01*
X430102Y293511D01*
X430156Y293427D01*
X430206Y293341D01*
X430253Y293253D01*
X430297Y293163D01*
X430337Y293072D01*
X430373Y292979D01*
X430406Y292885D01*
X430435Y292789D01*
X430460Y292693D01*
X430481Y292596D01*
X430499Y292497D01*
X430512Y292399D01*
X430522Y292299D01*
X430528Y292200D01*
X430530Y292100D01*
X403860Y279400D02*
X402590Y279400D01*
D11*
X403860Y279400D02*
X403860Y271780D01*
X403860Y279400D02*
X403860Y287020D01*
X408940Y279400D02*
X408940Y271780D01*
X408940Y279400D02*
X408940Y287020D01*
D10*
X408940Y279400D02*
X410210Y279400D01*
D12*
X411443Y249555D02*
X408903Y249555D01*
X408803Y249557D01*
X408704Y249563D01*
X408604Y249573D01*
X408506Y249586D01*
X408407Y249604D01*
X408310Y249625D01*
X408214Y249650D01*
X408118Y249679D01*
X408024Y249712D01*
X407931Y249748D01*
X407840Y249788D01*
X407750Y249832D01*
X407662Y249879D01*
X407576Y249929D01*
X407492Y249983D01*
X407410Y250040D01*
X407331Y250100D01*
X407253Y250164D01*
X407179Y250230D01*
X407107Y250299D01*
X407038Y250371D01*
X406972Y250445D01*
X406908Y250523D01*
X406848Y250602D01*
X406791Y250684D01*
X406737Y250768D01*
X406687Y250854D01*
X406640Y250942D01*
X406596Y251032D01*
X406556Y251123D01*
X406520Y251216D01*
X406487Y251310D01*
X406458Y251406D01*
X406433Y251502D01*
X406412Y251599D01*
X406394Y251698D01*
X406381Y251796D01*
X406371Y251896D01*
X406365Y251995D01*
X406363Y252095D01*
X406363Y258445D01*
X406365Y258545D01*
X406371Y258644D01*
X406381Y258744D01*
X406394Y258842D01*
X406412Y258941D01*
X406433Y259038D01*
X406458Y259134D01*
X406487Y259230D01*
X406520Y259324D01*
X406556Y259417D01*
X406596Y259508D01*
X406640Y259598D01*
X406687Y259686D01*
X406737Y259772D01*
X406791Y259856D01*
X406848Y259938D01*
X406908Y260017D01*
X406972Y260095D01*
X407038Y260169D01*
X407107Y260241D01*
X407179Y260310D01*
X407253Y260376D01*
X407331Y260440D01*
X407410Y260500D01*
X407492Y260557D01*
X407576Y260611D01*
X407662Y260661D01*
X407750Y260708D01*
X407840Y260752D01*
X407931Y260792D01*
X408024Y260828D01*
X408118Y260861D01*
X408214Y260890D01*
X408310Y260915D01*
X408407Y260936D01*
X408506Y260954D01*
X408604Y260967D01*
X408704Y260977D01*
X408803Y260983D01*
X408903Y260985D01*
X411443Y260985D01*
X419418Y260986D02*
X419522Y260984D01*
X419627Y260978D01*
X419731Y260969D01*
X419834Y260956D01*
X419937Y260938D01*
X420039Y260918D01*
X420141Y260893D01*
X420241Y260865D01*
X420341Y260833D01*
X420439Y260797D01*
X420536Y260758D01*
X420631Y260716D01*
X420725Y260670D01*
X420817Y260620D01*
X420907Y260568D01*
X420995Y260512D01*
X421081Y260452D01*
X421165Y260390D01*
X421246Y260325D01*
X421325Y260257D01*
X421402Y260185D01*
X421475Y260112D01*
X421547Y260035D01*
X421615Y259956D01*
X421680Y259875D01*
X421742Y259791D01*
X421802Y259705D01*
X421858Y259617D01*
X421910Y259527D01*
X421960Y259435D01*
X422006Y259341D01*
X422048Y259246D01*
X422087Y259149D01*
X422123Y259051D01*
X422155Y258951D01*
X422183Y258851D01*
X422208Y258749D01*
X422228Y258647D01*
X422246Y258544D01*
X422259Y258441D01*
X422268Y258337D01*
X422274Y258232D01*
X422276Y258128D01*
X419418Y260985D02*
X419300Y260983D01*
X419181Y260977D01*
X419063Y260968D01*
X418946Y260955D01*
X418829Y260937D01*
X418712Y260917D01*
X418596Y260892D01*
X418481Y260864D01*
X418368Y260831D01*
X418255Y260796D01*
X418143Y260756D01*
X418033Y260714D01*
X417924Y260667D01*
X417816Y260617D01*
X417711Y260564D01*
X417607Y260507D01*
X417505Y260447D01*
X417405Y260384D01*
X417307Y260317D01*
X417211Y260248D01*
X417118Y260175D01*
X417027Y260099D01*
X416938Y260021D01*
X416852Y259939D01*
X416769Y259855D01*
X416688Y259769D01*
X416611Y259679D01*
X416536Y259588D01*
X416464Y259494D01*
X416395Y259397D01*
X416330Y259299D01*
X416267Y259198D01*
X416208Y259095D01*
X416152Y258991D01*
X416100Y258885D01*
X416051Y258777D01*
X416006Y258668D01*
X415964Y258557D01*
X415926Y258445D01*
X421323Y255906D02*
X421399Y255981D01*
X421474Y256060D01*
X421545Y256141D01*
X421614Y256225D01*
X421679Y256311D01*
X421741Y256399D01*
X421801Y256489D01*
X421857Y256581D01*
X421910Y256676D01*
X421959Y256772D01*
X422005Y256870D01*
X422048Y256969D01*
X422087Y257070D01*
X422122Y257172D01*
X422154Y257275D01*
X422182Y257379D01*
X422207Y257484D01*
X422228Y257591D01*
X422245Y257697D01*
X422258Y257804D01*
X422267Y257912D01*
X422273Y258020D01*
X422275Y258128D01*
X421323Y255905D02*
X415925Y249555D01*
X422275Y249555D01*
D10*
X326390Y383540D02*
X283210Y383540D01*
X283210Y353060D02*
X326390Y353060D01*
X328930Y355600D02*
X328930Y381000D01*
X280670Y381000D02*
X280670Y355600D01*
X326390Y383540D02*
X326490Y383538D01*
X326589Y383532D01*
X326689Y383522D01*
X326787Y383509D01*
X326886Y383491D01*
X326983Y383470D01*
X327079Y383445D01*
X327175Y383416D01*
X327269Y383383D01*
X327362Y383347D01*
X327453Y383307D01*
X327543Y383263D01*
X327631Y383216D01*
X327717Y383166D01*
X327801Y383112D01*
X327883Y383055D01*
X327962Y382995D01*
X328040Y382931D01*
X328114Y382865D01*
X328186Y382796D01*
X328255Y382724D01*
X328321Y382650D01*
X328385Y382572D01*
X328445Y382493D01*
X328502Y382411D01*
X328556Y382327D01*
X328606Y382241D01*
X328653Y382153D01*
X328697Y382063D01*
X328737Y381972D01*
X328773Y381879D01*
X328806Y381785D01*
X328835Y381689D01*
X328860Y381593D01*
X328881Y381496D01*
X328899Y381397D01*
X328912Y381299D01*
X328922Y381199D01*
X328928Y381100D01*
X328930Y381000D01*
X283210Y383540D02*
X283110Y383538D01*
X283011Y383532D01*
X282911Y383522D01*
X282813Y383509D01*
X282714Y383491D01*
X282617Y383470D01*
X282521Y383445D01*
X282425Y383416D01*
X282331Y383383D01*
X282238Y383347D01*
X282147Y383307D01*
X282057Y383263D01*
X281969Y383216D01*
X281883Y383166D01*
X281799Y383112D01*
X281717Y383055D01*
X281638Y382995D01*
X281560Y382931D01*
X281486Y382865D01*
X281414Y382796D01*
X281345Y382724D01*
X281279Y382650D01*
X281215Y382572D01*
X281155Y382493D01*
X281098Y382411D01*
X281044Y382327D01*
X280994Y382241D01*
X280947Y382153D01*
X280903Y382063D01*
X280863Y381972D01*
X280827Y381879D01*
X280794Y381785D01*
X280765Y381689D01*
X280740Y381593D01*
X280719Y381496D01*
X280701Y381397D01*
X280688Y381299D01*
X280678Y381199D01*
X280672Y381100D01*
X280670Y381000D01*
X326390Y353060D02*
X326490Y353062D01*
X326589Y353068D01*
X326689Y353078D01*
X326787Y353091D01*
X326886Y353109D01*
X326983Y353130D01*
X327079Y353155D01*
X327175Y353184D01*
X327269Y353217D01*
X327362Y353253D01*
X327453Y353293D01*
X327543Y353337D01*
X327631Y353384D01*
X327717Y353434D01*
X327801Y353488D01*
X327883Y353545D01*
X327962Y353605D01*
X328040Y353669D01*
X328114Y353735D01*
X328186Y353804D01*
X328255Y353876D01*
X328321Y353950D01*
X328385Y354028D01*
X328445Y354107D01*
X328502Y354189D01*
X328556Y354273D01*
X328606Y354359D01*
X328653Y354447D01*
X328697Y354537D01*
X328737Y354628D01*
X328773Y354721D01*
X328806Y354815D01*
X328835Y354911D01*
X328860Y355007D01*
X328881Y355104D01*
X328899Y355203D01*
X328912Y355301D01*
X328922Y355401D01*
X328928Y355500D01*
X328930Y355600D01*
X283210Y353060D02*
X283110Y353062D01*
X283011Y353068D01*
X282911Y353078D01*
X282813Y353091D01*
X282714Y353109D01*
X282617Y353130D01*
X282521Y353155D01*
X282425Y353184D01*
X282331Y353217D01*
X282238Y353253D01*
X282147Y353293D01*
X282057Y353337D01*
X281969Y353384D01*
X281883Y353434D01*
X281799Y353488D01*
X281717Y353545D01*
X281638Y353605D01*
X281560Y353669D01*
X281486Y353735D01*
X281414Y353804D01*
X281345Y353876D01*
X281279Y353950D01*
X281215Y354028D01*
X281155Y354107D01*
X281098Y354189D01*
X281044Y354273D01*
X280994Y354359D01*
X280947Y354447D01*
X280903Y354537D01*
X280863Y354628D01*
X280827Y354721D01*
X280794Y354815D01*
X280765Y354911D01*
X280740Y355007D01*
X280719Y355104D01*
X280701Y355203D01*
X280688Y355301D01*
X280678Y355401D01*
X280672Y355500D01*
X280670Y355600D01*
X307340Y368300D02*
X308610Y368300D01*
D11*
X307340Y368300D02*
X307340Y375920D01*
X307340Y368300D02*
X307340Y360680D01*
X302260Y368300D02*
X302260Y375920D01*
X302260Y368300D02*
X302260Y360680D01*
D10*
X302260Y368300D02*
X300990Y368300D01*
D12*
X294005Y386715D02*
X291465Y386715D01*
X291365Y386717D01*
X291266Y386723D01*
X291166Y386733D01*
X291068Y386746D01*
X290969Y386764D01*
X290872Y386785D01*
X290776Y386810D01*
X290680Y386839D01*
X290586Y386872D01*
X290493Y386908D01*
X290402Y386948D01*
X290312Y386992D01*
X290224Y387039D01*
X290138Y387089D01*
X290054Y387143D01*
X289972Y387200D01*
X289893Y387260D01*
X289815Y387324D01*
X289741Y387390D01*
X289669Y387459D01*
X289600Y387531D01*
X289534Y387605D01*
X289470Y387683D01*
X289410Y387762D01*
X289353Y387844D01*
X289299Y387928D01*
X289249Y388014D01*
X289202Y388102D01*
X289158Y388192D01*
X289118Y388283D01*
X289082Y388376D01*
X289049Y388470D01*
X289020Y388566D01*
X288995Y388662D01*
X288974Y388759D01*
X288956Y388858D01*
X288943Y388956D01*
X288933Y389056D01*
X288927Y389155D01*
X288925Y389255D01*
X288925Y395605D01*
X288927Y395705D01*
X288933Y395804D01*
X288943Y395904D01*
X288956Y396002D01*
X288974Y396101D01*
X288995Y396198D01*
X289020Y396294D01*
X289049Y396390D01*
X289082Y396484D01*
X289118Y396577D01*
X289158Y396668D01*
X289202Y396758D01*
X289249Y396846D01*
X289299Y396932D01*
X289353Y397016D01*
X289410Y397098D01*
X289470Y397177D01*
X289534Y397255D01*
X289600Y397329D01*
X289669Y397401D01*
X289741Y397470D01*
X289815Y397536D01*
X289893Y397600D01*
X289972Y397660D01*
X290054Y397717D01*
X290138Y397771D01*
X290224Y397821D01*
X290312Y397868D01*
X290402Y397912D01*
X290493Y397952D01*
X290586Y397988D01*
X290680Y398021D01*
X290776Y398050D01*
X290872Y398075D01*
X290969Y398096D01*
X291068Y398114D01*
X291166Y398127D01*
X291266Y398137D01*
X291365Y398143D01*
X291465Y398145D01*
X294005Y398145D01*
X298487Y386715D02*
X301662Y386715D01*
X301773Y386717D01*
X301883Y386723D01*
X301994Y386732D01*
X302104Y386746D01*
X302213Y386763D01*
X302322Y386784D01*
X302430Y386809D01*
X302537Y386838D01*
X302643Y386870D01*
X302748Y386906D01*
X302851Y386946D01*
X302953Y386989D01*
X303054Y387036D01*
X303153Y387087D01*
X303250Y387140D01*
X303344Y387197D01*
X303437Y387258D01*
X303528Y387321D01*
X303617Y387388D01*
X303703Y387458D01*
X303786Y387531D01*
X303868Y387606D01*
X303946Y387684D01*
X304021Y387766D01*
X304094Y387849D01*
X304164Y387935D01*
X304231Y388024D01*
X304294Y388115D01*
X304355Y388208D01*
X304412Y388302D01*
X304465Y388399D01*
X304516Y388498D01*
X304563Y388599D01*
X304606Y388701D01*
X304646Y388804D01*
X304682Y388909D01*
X304714Y389015D01*
X304743Y389122D01*
X304768Y389230D01*
X304789Y389339D01*
X304806Y389448D01*
X304820Y389558D01*
X304829Y389669D01*
X304835Y389779D01*
X304837Y389890D01*
X304835Y390001D01*
X304829Y390111D01*
X304820Y390222D01*
X304806Y390332D01*
X304789Y390441D01*
X304768Y390550D01*
X304743Y390658D01*
X304714Y390765D01*
X304682Y390871D01*
X304646Y390976D01*
X304606Y391079D01*
X304563Y391181D01*
X304516Y391282D01*
X304465Y391381D01*
X304412Y391477D01*
X304355Y391572D01*
X304294Y391665D01*
X304231Y391756D01*
X304164Y391845D01*
X304094Y391931D01*
X304021Y392014D01*
X303946Y392096D01*
X303868Y392174D01*
X303786Y392249D01*
X303703Y392322D01*
X303617Y392392D01*
X303528Y392459D01*
X303437Y392522D01*
X303344Y392583D01*
X303250Y392640D01*
X303153Y392693D01*
X303054Y392744D01*
X302953Y392791D01*
X302851Y392834D01*
X302748Y392874D01*
X302643Y392910D01*
X302537Y392942D01*
X302430Y392971D01*
X302322Y392996D01*
X302213Y393017D01*
X302104Y393034D01*
X301994Y393048D01*
X301883Y393057D01*
X301773Y393063D01*
X301662Y393065D01*
X302297Y398145D02*
X298487Y398145D01*
X302297Y398145D02*
X302397Y398143D01*
X302496Y398137D01*
X302596Y398127D01*
X302694Y398114D01*
X302793Y398096D01*
X302890Y398075D01*
X302986Y398050D01*
X303082Y398021D01*
X303176Y397988D01*
X303269Y397952D01*
X303360Y397912D01*
X303450Y397868D01*
X303538Y397821D01*
X303624Y397771D01*
X303708Y397717D01*
X303790Y397660D01*
X303869Y397600D01*
X303947Y397536D01*
X304021Y397470D01*
X304093Y397401D01*
X304162Y397329D01*
X304228Y397255D01*
X304292Y397177D01*
X304352Y397098D01*
X304409Y397016D01*
X304463Y396932D01*
X304513Y396846D01*
X304560Y396758D01*
X304604Y396668D01*
X304644Y396577D01*
X304680Y396484D01*
X304713Y396390D01*
X304742Y396294D01*
X304767Y396198D01*
X304788Y396101D01*
X304806Y396002D01*
X304819Y395904D01*
X304829Y395804D01*
X304835Y395705D01*
X304837Y395605D01*
X304835Y395505D01*
X304829Y395406D01*
X304819Y395306D01*
X304806Y395208D01*
X304788Y395109D01*
X304767Y395012D01*
X304742Y394916D01*
X304713Y394820D01*
X304680Y394726D01*
X304644Y394633D01*
X304604Y394542D01*
X304560Y394452D01*
X304513Y394364D01*
X304463Y394278D01*
X304409Y394194D01*
X304352Y394112D01*
X304292Y394033D01*
X304228Y393955D01*
X304162Y393881D01*
X304093Y393809D01*
X304021Y393740D01*
X303947Y393674D01*
X303869Y393610D01*
X303790Y393550D01*
X303708Y393493D01*
X303624Y393439D01*
X303538Y393389D01*
X303450Y393342D01*
X303360Y393298D01*
X303269Y393258D01*
X303176Y393222D01*
X303082Y393189D01*
X302986Y393160D01*
X302890Y393135D01*
X302793Y393114D01*
X302694Y393096D01*
X302596Y393083D01*
X302496Y393073D01*
X302397Y393067D01*
X302297Y393065D01*
X299757Y393065D01*
D10*
X332740Y313690D02*
X332740Y270510D01*
X302260Y270510D02*
X302260Y313690D01*
X304800Y267970D02*
X330200Y267970D01*
X330200Y316230D02*
X304800Y316230D01*
X332740Y270510D02*
X332738Y270410D01*
X332732Y270311D01*
X332722Y270211D01*
X332709Y270113D01*
X332691Y270014D01*
X332670Y269917D01*
X332645Y269821D01*
X332616Y269725D01*
X332583Y269631D01*
X332547Y269538D01*
X332507Y269447D01*
X332463Y269357D01*
X332416Y269269D01*
X332366Y269183D01*
X332312Y269099D01*
X332255Y269017D01*
X332195Y268938D01*
X332131Y268860D01*
X332065Y268786D01*
X331996Y268714D01*
X331924Y268645D01*
X331850Y268579D01*
X331772Y268515D01*
X331693Y268455D01*
X331611Y268398D01*
X331527Y268344D01*
X331441Y268294D01*
X331353Y268247D01*
X331263Y268203D01*
X331172Y268163D01*
X331079Y268127D01*
X330985Y268094D01*
X330889Y268065D01*
X330793Y268040D01*
X330696Y268019D01*
X330597Y268001D01*
X330499Y267988D01*
X330399Y267978D01*
X330300Y267972D01*
X330200Y267970D01*
X332740Y313690D02*
X332738Y313790D01*
X332732Y313889D01*
X332722Y313989D01*
X332709Y314087D01*
X332691Y314186D01*
X332670Y314283D01*
X332645Y314379D01*
X332616Y314475D01*
X332583Y314569D01*
X332547Y314662D01*
X332507Y314753D01*
X332463Y314843D01*
X332416Y314931D01*
X332366Y315017D01*
X332312Y315101D01*
X332255Y315183D01*
X332195Y315262D01*
X332131Y315340D01*
X332065Y315414D01*
X331996Y315486D01*
X331924Y315555D01*
X331850Y315621D01*
X331772Y315685D01*
X331693Y315745D01*
X331611Y315802D01*
X331527Y315856D01*
X331441Y315906D01*
X331353Y315953D01*
X331263Y315997D01*
X331172Y316037D01*
X331079Y316073D01*
X330985Y316106D01*
X330889Y316135D01*
X330793Y316160D01*
X330696Y316181D01*
X330597Y316199D01*
X330499Y316212D01*
X330399Y316222D01*
X330300Y316228D01*
X330200Y316230D01*
X302260Y270510D02*
X302262Y270410D01*
X302268Y270311D01*
X302278Y270211D01*
X302291Y270113D01*
X302309Y270014D01*
X302330Y269917D01*
X302355Y269821D01*
X302384Y269725D01*
X302417Y269631D01*
X302453Y269538D01*
X302493Y269447D01*
X302537Y269357D01*
X302584Y269269D01*
X302634Y269183D01*
X302688Y269099D01*
X302745Y269017D01*
X302805Y268938D01*
X302869Y268860D01*
X302935Y268786D01*
X303004Y268714D01*
X303076Y268645D01*
X303150Y268579D01*
X303228Y268515D01*
X303307Y268455D01*
X303389Y268398D01*
X303473Y268344D01*
X303559Y268294D01*
X303647Y268247D01*
X303737Y268203D01*
X303828Y268163D01*
X303921Y268127D01*
X304015Y268094D01*
X304111Y268065D01*
X304207Y268040D01*
X304304Y268019D01*
X304403Y268001D01*
X304501Y267988D01*
X304601Y267978D01*
X304700Y267972D01*
X304800Y267970D01*
X302260Y313690D02*
X302262Y313790D01*
X302268Y313889D01*
X302278Y313989D01*
X302291Y314087D01*
X302309Y314186D01*
X302330Y314283D01*
X302355Y314379D01*
X302384Y314475D01*
X302417Y314569D01*
X302453Y314662D01*
X302493Y314753D01*
X302537Y314843D01*
X302584Y314931D01*
X302634Y315017D01*
X302688Y315101D01*
X302745Y315183D01*
X302805Y315262D01*
X302869Y315340D01*
X302935Y315414D01*
X303004Y315486D01*
X303076Y315555D01*
X303150Y315621D01*
X303228Y315685D01*
X303307Y315745D01*
X303389Y315802D01*
X303473Y315856D01*
X303559Y315906D01*
X303647Y315953D01*
X303737Y315997D01*
X303828Y316037D01*
X303921Y316073D01*
X304015Y316106D01*
X304111Y316135D01*
X304207Y316160D01*
X304304Y316181D01*
X304403Y316199D01*
X304501Y316212D01*
X304601Y316222D01*
X304700Y316228D01*
X304800Y316230D01*
X317500Y289560D02*
X317500Y288290D01*
D11*
X317500Y289560D02*
X325120Y289560D01*
X317500Y289560D02*
X309880Y289560D01*
X317500Y294640D02*
X325120Y294640D01*
X317500Y294640D02*
X309880Y294640D01*
D10*
X317500Y294640D02*
X317500Y295910D01*
D12*
X347345Y297143D02*
X347345Y294603D01*
X347343Y294503D01*
X347337Y294404D01*
X347327Y294304D01*
X347314Y294206D01*
X347296Y294107D01*
X347275Y294010D01*
X347250Y293914D01*
X347221Y293818D01*
X347188Y293724D01*
X347152Y293631D01*
X347112Y293540D01*
X347068Y293450D01*
X347021Y293362D01*
X346971Y293276D01*
X346917Y293192D01*
X346860Y293110D01*
X346800Y293031D01*
X346736Y292953D01*
X346670Y292879D01*
X346601Y292807D01*
X346529Y292738D01*
X346455Y292672D01*
X346377Y292608D01*
X346298Y292548D01*
X346216Y292491D01*
X346132Y292437D01*
X346046Y292387D01*
X345958Y292340D01*
X345868Y292296D01*
X345777Y292256D01*
X345684Y292220D01*
X345590Y292187D01*
X345494Y292158D01*
X345398Y292133D01*
X345301Y292112D01*
X345202Y292094D01*
X345104Y292081D01*
X345004Y292071D01*
X344905Y292065D01*
X344805Y292063D01*
X338455Y292063D01*
X338355Y292065D01*
X338256Y292071D01*
X338156Y292081D01*
X338058Y292094D01*
X337959Y292112D01*
X337862Y292133D01*
X337766Y292158D01*
X337670Y292187D01*
X337576Y292220D01*
X337483Y292256D01*
X337392Y292296D01*
X337302Y292340D01*
X337214Y292387D01*
X337128Y292437D01*
X337044Y292491D01*
X336962Y292548D01*
X336883Y292608D01*
X336805Y292672D01*
X336731Y292738D01*
X336659Y292807D01*
X336590Y292879D01*
X336524Y292953D01*
X336460Y293031D01*
X336400Y293110D01*
X336343Y293192D01*
X336289Y293276D01*
X336239Y293362D01*
X336192Y293450D01*
X336148Y293540D01*
X336108Y293631D01*
X336072Y293724D01*
X336039Y293818D01*
X336010Y293914D01*
X335985Y294010D01*
X335964Y294107D01*
X335946Y294206D01*
X335933Y294304D01*
X335923Y294404D01*
X335917Y294503D01*
X335915Y294603D01*
X335915Y297143D01*
X335915Y304165D02*
X344805Y301625D01*
X344805Y307975D01*
X342265Y306070D02*
X347345Y306070D01*
D10*
X281940Y422910D02*
X281940Y466090D01*
X251460Y466090D02*
X251460Y422910D01*
X254000Y420370D02*
X279400Y420370D01*
X279400Y468630D02*
X254000Y468630D01*
X281940Y422910D02*
X281938Y422810D01*
X281932Y422711D01*
X281922Y422611D01*
X281909Y422513D01*
X281891Y422414D01*
X281870Y422317D01*
X281845Y422221D01*
X281816Y422125D01*
X281783Y422031D01*
X281747Y421938D01*
X281707Y421847D01*
X281663Y421757D01*
X281616Y421669D01*
X281566Y421583D01*
X281512Y421499D01*
X281455Y421417D01*
X281395Y421338D01*
X281331Y421260D01*
X281265Y421186D01*
X281196Y421114D01*
X281124Y421045D01*
X281050Y420979D01*
X280972Y420915D01*
X280893Y420855D01*
X280811Y420798D01*
X280727Y420744D01*
X280641Y420694D01*
X280553Y420647D01*
X280463Y420603D01*
X280372Y420563D01*
X280279Y420527D01*
X280185Y420494D01*
X280089Y420465D01*
X279993Y420440D01*
X279896Y420419D01*
X279797Y420401D01*
X279699Y420388D01*
X279599Y420378D01*
X279500Y420372D01*
X279400Y420370D01*
X281940Y466090D02*
X281938Y466190D01*
X281932Y466289D01*
X281922Y466389D01*
X281909Y466487D01*
X281891Y466586D01*
X281870Y466683D01*
X281845Y466779D01*
X281816Y466875D01*
X281783Y466969D01*
X281747Y467062D01*
X281707Y467153D01*
X281663Y467243D01*
X281616Y467331D01*
X281566Y467417D01*
X281512Y467501D01*
X281455Y467583D01*
X281395Y467662D01*
X281331Y467740D01*
X281265Y467814D01*
X281196Y467886D01*
X281124Y467955D01*
X281050Y468021D01*
X280972Y468085D01*
X280893Y468145D01*
X280811Y468202D01*
X280727Y468256D01*
X280641Y468306D01*
X280553Y468353D01*
X280463Y468397D01*
X280372Y468437D01*
X280279Y468473D01*
X280185Y468506D01*
X280089Y468535D01*
X279993Y468560D01*
X279896Y468581D01*
X279797Y468599D01*
X279699Y468612D01*
X279599Y468622D01*
X279500Y468628D01*
X279400Y468630D01*
X251460Y422910D02*
X251462Y422810D01*
X251468Y422711D01*
X251478Y422611D01*
X251491Y422513D01*
X251509Y422414D01*
X251530Y422317D01*
X251555Y422221D01*
X251584Y422125D01*
X251617Y422031D01*
X251653Y421938D01*
X251693Y421847D01*
X251737Y421757D01*
X251784Y421669D01*
X251834Y421583D01*
X251888Y421499D01*
X251945Y421417D01*
X252005Y421338D01*
X252069Y421260D01*
X252135Y421186D01*
X252204Y421114D01*
X252276Y421045D01*
X252350Y420979D01*
X252428Y420915D01*
X252507Y420855D01*
X252589Y420798D01*
X252673Y420744D01*
X252759Y420694D01*
X252847Y420647D01*
X252937Y420603D01*
X253028Y420563D01*
X253121Y420527D01*
X253215Y420494D01*
X253311Y420465D01*
X253407Y420440D01*
X253504Y420419D01*
X253603Y420401D01*
X253701Y420388D01*
X253801Y420378D01*
X253900Y420372D01*
X254000Y420370D01*
X251460Y466090D02*
X251462Y466190D01*
X251468Y466289D01*
X251478Y466389D01*
X251491Y466487D01*
X251509Y466586D01*
X251530Y466683D01*
X251555Y466779D01*
X251584Y466875D01*
X251617Y466969D01*
X251653Y467062D01*
X251693Y467153D01*
X251737Y467243D01*
X251784Y467331D01*
X251834Y467417D01*
X251888Y467501D01*
X251945Y467583D01*
X252005Y467662D01*
X252069Y467740D01*
X252135Y467814D01*
X252204Y467886D01*
X252276Y467955D01*
X252350Y468021D01*
X252428Y468085D01*
X252507Y468145D01*
X252589Y468202D01*
X252673Y468256D01*
X252759Y468306D01*
X252847Y468353D01*
X252937Y468397D01*
X253028Y468437D01*
X253121Y468473D01*
X253215Y468506D01*
X253311Y468535D01*
X253407Y468560D01*
X253504Y468581D01*
X253603Y468599D01*
X253701Y468612D01*
X253801Y468622D01*
X253900Y468628D01*
X254000Y468630D01*
X266700Y441960D02*
X266700Y440690D01*
D11*
X266700Y441960D02*
X274320Y441960D01*
X266700Y441960D02*
X259080Y441960D01*
X266700Y447040D02*
X274320Y447040D01*
X266700Y447040D02*
X259080Y447040D01*
D10*
X266700Y447040D02*
X266700Y448310D01*
D12*
X296545Y449543D02*
X296545Y447003D01*
X296543Y446903D01*
X296537Y446804D01*
X296527Y446704D01*
X296514Y446606D01*
X296496Y446507D01*
X296475Y446410D01*
X296450Y446314D01*
X296421Y446218D01*
X296388Y446124D01*
X296352Y446031D01*
X296312Y445940D01*
X296268Y445850D01*
X296221Y445762D01*
X296171Y445676D01*
X296117Y445592D01*
X296060Y445510D01*
X296000Y445431D01*
X295936Y445353D01*
X295870Y445279D01*
X295801Y445207D01*
X295729Y445138D01*
X295655Y445072D01*
X295577Y445008D01*
X295498Y444948D01*
X295416Y444891D01*
X295332Y444837D01*
X295246Y444787D01*
X295158Y444740D01*
X295068Y444696D01*
X294977Y444656D01*
X294884Y444620D01*
X294790Y444587D01*
X294694Y444558D01*
X294598Y444533D01*
X294501Y444512D01*
X294402Y444494D01*
X294304Y444481D01*
X294204Y444471D01*
X294105Y444465D01*
X294005Y444463D01*
X287655Y444463D01*
X287555Y444465D01*
X287456Y444471D01*
X287356Y444481D01*
X287258Y444494D01*
X287159Y444512D01*
X287062Y444533D01*
X286966Y444558D01*
X286870Y444587D01*
X286776Y444620D01*
X286683Y444656D01*
X286592Y444696D01*
X286502Y444740D01*
X286414Y444787D01*
X286328Y444837D01*
X286244Y444891D01*
X286162Y444948D01*
X286083Y445008D01*
X286005Y445072D01*
X285931Y445138D01*
X285859Y445207D01*
X285790Y445279D01*
X285724Y445353D01*
X285660Y445431D01*
X285600Y445510D01*
X285543Y445592D01*
X285489Y445676D01*
X285439Y445762D01*
X285392Y445850D01*
X285348Y445940D01*
X285308Y446031D01*
X285272Y446124D01*
X285239Y446218D01*
X285210Y446314D01*
X285185Y446410D01*
X285164Y446507D01*
X285146Y446606D01*
X285133Y446704D01*
X285123Y446804D01*
X285117Y446903D01*
X285115Y447003D01*
X285115Y449543D01*
X296545Y454025D02*
X296545Y457835D01*
X296543Y457935D01*
X296537Y458034D01*
X296527Y458134D01*
X296514Y458232D01*
X296496Y458331D01*
X296475Y458428D01*
X296450Y458524D01*
X296421Y458620D01*
X296388Y458714D01*
X296352Y458807D01*
X296312Y458898D01*
X296268Y458988D01*
X296221Y459076D01*
X296171Y459162D01*
X296117Y459246D01*
X296060Y459328D01*
X296000Y459407D01*
X295936Y459485D01*
X295870Y459559D01*
X295801Y459631D01*
X295729Y459700D01*
X295655Y459766D01*
X295577Y459830D01*
X295498Y459890D01*
X295416Y459947D01*
X295332Y460001D01*
X295246Y460051D01*
X295158Y460098D01*
X295068Y460142D01*
X294977Y460182D01*
X294884Y460218D01*
X294790Y460251D01*
X294694Y460280D01*
X294598Y460305D01*
X294501Y460326D01*
X294402Y460344D01*
X294304Y460357D01*
X294204Y460367D01*
X294105Y460373D01*
X294005Y460375D01*
X292735Y460375D01*
X292635Y460373D01*
X292536Y460367D01*
X292436Y460357D01*
X292338Y460344D01*
X292239Y460326D01*
X292142Y460305D01*
X292046Y460280D01*
X291950Y460251D01*
X291856Y460218D01*
X291763Y460182D01*
X291672Y460142D01*
X291582Y460098D01*
X291494Y460051D01*
X291408Y460001D01*
X291324Y459947D01*
X291242Y459890D01*
X291163Y459830D01*
X291085Y459766D01*
X291011Y459700D01*
X290939Y459631D01*
X290870Y459559D01*
X290804Y459485D01*
X290740Y459407D01*
X290680Y459328D01*
X290623Y459246D01*
X290569Y459162D01*
X290519Y459076D01*
X290472Y458988D01*
X290428Y458898D01*
X290388Y458807D01*
X290352Y458714D01*
X290319Y458620D01*
X290290Y458524D01*
X290265Y458428D01*
X290244Y458331D01*
X290226Y458232D01*
X290213Y458134D01*
X290203Y458034D01*
X290197Y457935D01*
X290195Y457835D01*
X290195Y454025D01*
X285115Y454025D01*
X285115Y460375D01*
D10*
X448310Y505460D02*
X491490Y505460D01*
X491490Y535940D02*
X448310Y535940D01*
X445770Y533400D02*
X445770Y508000D01*
X494030Y508000D02*
X494030Y533400D01*
X448310Y505460D02*
X448210Y505462D01*
X448111Y505468D01*
X448011Y505478D01*
X447913Y505491D01*
X447814Y505509D01*
X447717Y505530D01*
X447621Y505555D01*
X447525Y505584D01*
X447431Y505617D01*
X447338Y505653D01*
X447247Y505693D01*
X447157Y505737D01*
X447069Y505784D01*
X446983Y505834D01*
X446899Y505888D01*
X446817Y505945D01*
X446738Y506005D01*
X446660Y506069D01*
X446586Y506135D01*
X446514Y506204D01*
X446445Y506276D01*
X446379Y506350D01*
X446315Y506428D01*
X446255Y506507D01*
X446198Y506589D01*
X446144Y506673D01*
X446094Y506759D01*
X446047Y506847D01*
X446003Y506937D01*
X445963Y507028D01*
X445927Y507121D01*
X445894Y507215D01*
X445865Y507311D01*
X445840Y507407D01*
X445819Y507504D01*
X445801Y507603D01*
X445788Y507701D01*
X445778Y507801D01*
X445772Y507900D01*
X445770Y508000D01*
X491490Y505460D02*
X491590Y505462D01*
X491689Y505468D01*
X491789Y505478D01*
X491887Y505491D01*
X491986Y505509D01*
X492083Y505530D01*
X492179Y505555D01*
X492275Y505584D01*
X492369Y505617D01*
X492462Y505653D01*
X492553Y505693D01*
X492643Y505737D01*
X492731Y505784D01*
X492817Y505834D01*
X492901Y505888D01*
X492983Y505945D01*
X493062Y506005D01*
X493140Y506069D01*
X493214Y506135D01*
X493286Y506204D01*
X493355Y506276D01*
X493421Y506350D01*
X493485Y506428D01*
X493545Y506507D01*
X493602Y506589D01*
X493656Y506673D01*
X493706Y506759D01*
X493753Y506847D01*
X493797Y506937D01*
X493837Y507028D01*
X493873Y507121D01*
X493906Y507215D01*
X493935Y507311D01*
X493960Y507407D01*
X493981Y507504D01*
X493999Y507603D01*
X494012Y507701D01*
X494022Y507801D01*
X494028Y507900D01*
X494030Y508000D01*
X448310Y535940D02*
X448210Y535938D01*
X448111Y535932D01*
X448011Y535922D01*
X447913Y535909D01*
X447814Y535891D01*
X447717Y535870D01*
X447621Y535845D01*
X447525Y535816D01*
X447431Y535783D01*
X447338Y535747D01*
X447247Y535707D01*
X447157Y535663D01*
X447069Y535616D01*
X446983Y535566D01*
X446899Y535512D01*
X446817Y535455D01*
X446738Y535395D01*
X446660Y535331D01*
X446586Y535265D01*
X446514Y535196D01*
X446445Y535124D01*
X446379Y535050D01*
X446315Y534972D01*
X446255Y534893D01*
X446198Y534811D01*
X446144Y534727D01*
X446094Y534641D01*
X446047Y534553D01*
X446003Y534463D01*
X445963Y534372D01*
X445927Y534279D01*
X445894Y534185D01*
X445865Y534089D01*
X445840Y533993D01*
X445819Y533896D01*
X445801Y533797D01*
X445788Y533699D01*
X445778Y533599D01*
X445772Y533500D01*
X445770Y533400D01*
X491490Y535940D02*
X491590Y535938D01*
X491689Y535932D01*
X491789Y535922D01*
X491887Y535909D01*
X491986Y535891D01*
X492083Y535870D01*
X492179Y535845D01*
X492275Y535816D01*
X492369Y535783D01*
X492462Y535747D01*
X492553Y535707D01*
X492643Y535663D01*
X492731Y535616D01*
X492817Y535566D01*
X492901Y535512D01*
X492983Y535455D01*
X493062Y535395D01*
X493140Y535331D01*
X493214Y535265D01*
X493286Y535196D01*
X493355Y535124D01*
X493421Y535050D01*
X493485Y534972D01*
X493545Y534893D01*
X493602Y534811D01*
X493656Y534727D01*
X493706Y534641D01*
X493753Y534553D01*
X493797Y534463D01*
X493837Y534372D01*
X493873Y534279D01*
X493906Y534185D01*
X493935Y534089D01*
X493960Y533993D01*
X493981Y533896D01*
X493999Y533797D01*
X494012Y533699D01*
X494022Y533599D01*
X494028Y533500D01*
X494030Y533400D01*
X467360Y520700D02*
X466090Y520700D01*
D11*
X467360Y520700D02*
X467360Y513080D01*
X467360Y520700D02*
X467360Y528320D01*
X472440Y520700D02*
X472440Y513080D01*
X472440Y520700D02*
X472440Y528320D01*
D10*
X472440Y520700D02*
X473710Y520700D01*
D12*
X474943Y490855D02*
X472403Y490855D01*
X472303Y490857D01*
X472204Y490863D01*
X472104Y490873D01*
X472006Y490886D01*
X471907Y490904D01*
X471810Y490925D01*
X471714Y490950D01*
X471618Y490979D01*
X471524Y491012D01*
X471431Y491048D01*
X471340Y491088D01*
X471250Y491132D01*
X471162Y491179D01*
X471076Y491229D01*
X470992Y491283D01*
X470910Y491340D01*
X470831Y491400D01*
X470753Y491464D01*
X470679Y491530D01*
X470607Y491599D01*
X470538Y491671D01*
X470472Y491745D01*
X470408Y491823D01*
X470348Y491902D01*
X470291Y491984D01*
X470237Y492068D01*
X470187Y492154D01*
X470140Y492242D01*
X470096Y492332D01*
X470056Y492423D01*
X470020Y492516D01*
X469987Y492610D01*
X469958Y492706D01*
X469933Y492802D01*
X469912Y492899D01*
X469894Y492998D01*
X469881Y493096D01*
X469871Y493196D01*
X469865Y493295D01*
X469863Y493395D01*
X469863Y499745D01*
X469865Y499845D01*
X469871Y499944D01*
X469881Y500044D01*
X469894Y500142D01*
X469912Y500241D01*
X469933Y500338D01*
X469958Y500434D01*
X469987Y500530D01*
X470020Y500624D01*
X470056Y500717D01*
X470096Y500808D01*
X470140Y500898D01*
X470187Y500986D01*
X470237Y501072D01*
X470291Y501156D01*
X470348Y501238D01*
X470408Y501317D01*
X470472Y501395D01*
X470538Y501469D01*
X470607Y501541D01*
X470679Y501610D01*
X470753Y501676D01*
X470831Y501740D01*
X470910Y501800D01*
X470992Y501857D01*
X471076Y501911D01*
X471162Y501961D01*
X471250Y502008D01*
X471340Y502052D01*
X471431Y502092D01*
X471524Y502128D01*
X471618Y502161D01*
X471714Y502190D01*
X471810Y502215D01*
X471907Y502236D01*
X472006Y502254D01*
X472104Y502267D01*
X472204Y502277D01*
X472303Y502283D01*
X472403Y502285D01*
X474943Y502285D01*
X479425Y497205D02*
X483235Y497205D01*
X483335Y497203D01*
X483434Y497197D01*
X483534Y497187D01*
X483632Y497174D01*
X483731Y497156D01*
X483828Y497135D01*
X483924Y497110D01*
X484020Y497081D01*
X484114Y497048D01*
X484207Y497012D01*
X484298Y496972D01*
X484388Y496928D01*
X484476Y496881D01*
X484562Y496831D01*
X484646Y496777D01*
X484728Y496720D01*
X484807Y496660D01*
X484885Y496596D01*
X484959Y496530D01*
X485031Y496461D01*
X485100Y496389D01*
X485166Y496315D01*
X485230Y496237D01*
X485290Y496158D01*
X485347Y496076D01*
X485401Y495992D01*
X485451Y495906D01*
X485498Y495818D01*
X485542Y495728D01*
X485582Y495637D01*
X485618Y495544D01*
X485651Y495450D01*
X485680Y495354D01*
X485705Y495258D01*
X485726Y495161D01*
X485744Y495062D01*
X485757Y494964D01*
X485767Y494864D01*
X485773Y494765D01*
X485775Y494665D01*
X485775Y494030D01*
X485773Y493919D01*
X485767Y493809D01*
X485758Y493698D01*
X485744Y493588D01*
X485727Y493479D01*
X485706Y493370D01*
X485681Y493262D01*
X485652Y493155D01*
X485620Y493049D01*
X485584Y492944D01*
X485544Y492841D01*
X485501Y492739D01*
X485454Y492638D01*
X485403Y492539D01*
X485350Y492442D01*
X485293Y492348D01*
X485232Y492255D01*
X485169Y492164D01*
X485102Y492075D01*
X485032Y491989D01*
X484959Y491906D01*
X484884Y491824D01*
X484806Y491746D01*
X484724Y491671D01*
X484641Y491598D01*
X484555Y491528D01*
X484466Y491461D01*
X484375Y491398D01*
X484282Y491337D01*
X484187Y491280D01*
X484091Y491227D01*
X483992Y491176D01*
X483891Y491129D01*
X483789Y491086D01*
X483686Y491046D01*
X483581Y491010D01*
X483475Y490978D01*
X483368Y490949D01*
X483260Y490924D01*
X483151Y490903D01*
X483042Y490886D01*
X482932Y490872D01*
X482821Y490863D01*
X482711Y490857D01*
X482600Y490855D01*
X482489Y490857D01*
X482379Y490863D01*
X482268Y490872D01*
X482158Y490886D01*
X482049Y490903D01*
X481940Y490924D01*
X481832Y490949D01*
X481725Y490978D01*
X481619Y491010D01*
X481514Y491046D01*
X481411Y491086D01*
X481309Y491129D01*
X481208Y491176D01*
X481109Y491227D01*
X481013Y491280D01*
X480918Y491337D01*
X480825Y491398D01*
X480734Y491461D01*
X480645Y491528D01*
X480559Y491598D01*
X480476Y491671D01*
X480394Y491746D01*
X480316Y491824D01*
X480241Y491906D01*
X480168Y491989D01*
X480098Y492075D01*
X480031Y492164D01*
X479968Y492255D01*
X479907Y492348D01*
X479850Y492443D01*
X479797Y492539D01*
X479746Y492638D01*
X479699Y492739D01*
X479656Y492841D01*
X479616Y492944D01*
X479580Y493049D01*
X479548Y493155D01*
X479519Y493262D01*
X479494Y493370D01*
X479473Y493479D01*
X479456Y493588D01*
X479442Y493698D01*
X479433Y493809D01*
X479427Y493919D01*
X479425Y494030D01*
X479425Y497205D01*
X479427Y497345D01*
X479433Y497485D01*
X479442Y497625D01*
X479456Y497764D01*
X479473Y497903D01*
X479494Y498041D01*
X479519Y498179D01*
X479548Y498316D01*
X479580Y498452D01*
X479617Y498587D01*
X479657Y498721D01*
X479700Y498854D01*
X479748Y498986D01*
X479798Y499117D01*
X479853Y499246D01*
X479911Y499373D01*
X479972Y499499D01*
X480037Y499623D01*
X480106Y499745D01*
X480177Y499865D01*
X480252Y499983D01*
X480330Y500100D01*
X480412Y500214D01*
X480496Y500325D01*
X480584Y500434D01*
X480674Y500541D01*
X480768Y500646D01*
X480864Y500747D01*
X480963Y500846D01*
X481064Y500942D01*
X481169Y501036D01*
X481276Y501126D01*
X481385Y501214D01*
X481496Y501298D01*
X481610Y501380D01*
X481727Y501458D01*
X481845Y501533D01*
X481965Y501604D01*
X482087Y501673D01*
X482211Y501738D01*
X482337Y501799D01*
X482464Y501857D01*
X482593Y501912D01*
X482724Y501962D01*
X482856Y502010D01*
X482989Y502053D01*
X483123Y502093D01*
X483258Y502130D01*
X483394Y502162D01*
X483531Y502191D01*
X483669Y502216D01*
X483807Y502237D01*
X483946Y502254D01*
X484085Y502268D01*
X484225Y502277D01*
X484365Y502283D01*
X484505Y502285D01*
D10*
X358140Y466090D02*
X358140Y422910D01*
X327660Y422910D02*
X327660Y466090D01*
X330200Y420370D02*
X355600Y420370D01*
X355600Y468630D02*
X330200Y468630D01*
X358140Y422910D02*
X358138Y422810D01*
X358132Y422711D01*
X358122Y422611D01*
X358109Y422513D01*
X358091Y422414D01*
X358070Y422317D01*
X358045Y422221D01*
X358016Y422125D01*
X357983Y422031D01*
X357947Y421938D01*
X357907Y421847D01*
X357863Y421757D01*
X357816Y421669D01*
X357766Y421583D01*
X357712Y421499D01*
X357655Y421417D01*
X357595Y421338D01*
X357531Y421260D01*
X357465Y421186D01*
X357396Y421114D01*
X357324Y421045D01*
X357250Y420979D01*
X357172Y420915D01*
X357093Y420855D01*
X357011Y420798D01*
X356927Y420744D01*
X356841Y420694D01*
X356753Y420647D01*
X356663Y420603D01*
X356572Y420563D01*
X356479Y420527D01*
X356385Y420494D01*
X356289Y420465D01*
X356193Y420440D01*
X356096Y420419D01*
X355997Y420401D01*
X355899Y420388D01*
X355799Y420378D01*
X355700Y420372D01*
X355600Y420370D01*
X358140Y466090D02*
X358138Y466190D01*
X358132Y466289D01*
X358122Y466389D01*
X358109Y466487D01*
X358091Y466586D01*
X358070Y466683D01*
X358045Y466779D01*
X358016Y466875D01*
X357983Y466969D01*
X357947Y467062D01*
X357907Y467153D01*
X357863Y467243D01*
X357816Y467331D01*
X357766Y467417D01*
X357712Y467501D01*
X357655Y467583D01*
X357595Y467662D01*
X357531Y467740D01*
X357465Y467814D01*
X357396Y467886D01*
X357324Y467955D01*
X357250Y468021D01*
X357172Y468085D01*
X357093Y468145D01*
X357011Y468202D01*
X356927Y468256D01*
X356841Y468306D01*
X356753Y468353D01*
X356663Y468397D01*
X356572Y468437D01*
X356479Y468473D01*
X356385Y468506D01*
X356289Y468535D01*
X356193Y468560D01*
X356096Y468581D01*
X355997Y468599D01*
X355899Y468612D01*
X355799Y468622D01*
X355700Y468628D01*
X355600Y468630D01*
X327660Y422910D02*
X327662Y422810D01*
X327668Y422711D01*
X327678Y422611D01*
X327691Y422513D01*
X327709Y422414D01*
X327730Y422317D01*
X327755Y422221D01*
X327784Y422125D01*
X327817Y422031D01*
X327853Y421938D01*
X327893Y421847D01*
X327937Y421757D01*
X327984Y421669D01*
X328034Y421583D01*
X328088Y421499D01*
X328145Y421417D01*
X328205Y421338D01*
X328269Y421260D01*
X328335Y421186D01*
X328404Y421114D01*
X328476Y421045D01*
X328550Y420979D01*
X328628Y420915D01*
X328707Y420855D01*
X328789Y420798D01*
X328873Y420744D01*
X328959Y420694D01*
X329047Y420647D01*
X329137Y420603D01*
X329228Y420563D01*
X329321Y420527D01*
X329415Y420494D01*
X329511Y420465D01*
X329607Y420440D01*
X329704Y420419D01*
X329803Y420401D01*
X329901Y420388D01*
X330001Y420378D01*
X330100Y420372D01*
X330200Y420370D01*
X327660Y466090D02*
X327662Y466190D01*
X327668Y466289D01*
X327678Y466389D01*
X327691Y466487D01*
X327709Y466586D01*
X327730Y466683D01*
X327755Y466779D01*
X327784Y466875D01*
X327817Y466969D01*
X327853Y467062D01*
X327893Y467153D01*
X327937Y467243D01*
X327984Y467331D01*
X328034Y467417D01*
X328088Y467501D01*
X328145Y467583D01*
X328205Y467662D01*
X328269Y467740D01*
X328335Y467814D01*
X328404Y467886D01*
X328476Y467955D01*
X328550Y468021D01*
X328628Y468085D01*
X328707Y468145D01*
X328789Y468202D01*
X328873Y468256D01*
X328959Y468306D01*
X329047Y468353D01*
X329137Y468397D01*
X329228Y468437D01*
X329321Y468473D01*
X329415Y468506D01*
X329511Y468535D01*
X329607Y468560D01*
X329704Y468581D01*
X329803Y468599D01*
X329901Y468612D01*
X330001Y468622D01*
X330100Y468628D01*
X330200Y468630D01*
X342900Y441960D02*
X342900Y440690D01*
D11*
X342900Y441960D02*
X350520Y441960D01*
X342900Y441960D02*
X335280Y441960D01*
X342900Y447040D02*
X350520Y447040D01*
X342900Y447040D02*
X335280Y447040D01*
D10*
X342900Y447040D02*
X342900Y448310D01*
D12*
X372745Y449543D02*
X372745Y447003D01*
X372743Y446903D01*
X372737Y446804D01*
X372727Y446704D01*
X372714Y446606D01*
X372696Y446507D01*
X372675Y446410D01*
X372650Y446314D01*
X372621Y446218D01*
X372588Y446124D01*
X372552Y446031D01*
X372512Y445940D01*
X372468Y445850D01*
X372421Y445762D01*
X372371Y445676D01*
X372317Y445592D01*
X372260Y445510D01*
X372200Y445431D01*
X372136Y445353D01*
X372070Y445279D01*
X372001Y445207D01*
X371929Y445138D01*
X371855Y445072D01*
X371777Y445008D01*
X371698Y444948D01*
X371616Y444891D01*
X371532Y444837D01*
X371446Y444787D01*
X371358Y444740D01*
X371268Y444696D01*
X371177Y444656D01*
X371084Y444620D01*
X370990Y444587D01*
X370894Y444558D01*
X370798Y444533D01*
X370701Y444512D01*
X370602Y444494D01*
X370504Y444481D01*
X370404Y444471D01*
X370305Y444465D01*
X370205Y444463D01*
X363855Y444463D01*
X363755Y444465D01*
X363656Y444471D01*
X363556Y444481D01*
X363458Y444494D01*
X363359Y444512D01*
X363262Y444533D01*
X363166Y444558D01*
X363070Y444587D01*
X362976Y444620D01*
X362883Y444656D01*
X362792Y444696D01*
X362702Y444740D01*
X362614Y444787D01*
X362528Y444837D01*
X362444Y444891D01*
X362362Y444948D01*
X362283Y445008D01*
X362205Y445072D01*
X362131Y445138D01*
X362059Y445207D01*
X361990Y445279D01*
X361924Y445353D01*
X361860Y445431D01*
X361800Y445510D01*
X361743Y445592D01*
X361689Y445676D01*
X361639Y445762D01*
X361592Y445850D01*
X361548Y445940D01*
X361508Y446031D01*
X361472Y446124D01*
X361439Y446218D01*
X361410Y446314D01*
X361385Y446410D01*
X361364Y446507D01*
X361346Y446606D01*
X361333Y446704D01*
X361323Y446804D01*
X361317Y446903D01*
X361315Y447003D01*
X361315Y449543D01*
X361315Y454025D02*
X362585Y454025D01*
X361315Y454025D02*
X361315Y460375D01*
X372745Y457200D01*
X510700Y433500D02*
X530700Y433500D01*
X530700Y455500D02*
X510700Y455500D01*
X509700Y429500D02*
X512700Y429500D01*
X513700Y429500D01*
X511700Y431500D01*
X509700Y429500D01*
X510700Y429500D01*
X511700Y430500D01*
D10*
X511462Y458262D02*
X511462Y464866D01*
X511462Y458262D02*
X514397Y458262D01*
X517802Y458262D02*
X520737Y458262D01*
X517802Y458262D02*
X517802Y464866D01*
X520737Y464866D01*
X520003Y461931D02*
X517802Y461931D01*
X524117Y464866D02*
X524117Y458262D01*
X524117Y464866D02*
X525952Y464866D01*
X526037Y464864D01*
X526121Y464858D01*
X526205Y464848D01*
X526289Y464835D01*
X526372Y464817D01*
X526454Y464796D01*
X526535Y464771D01*
X526615Y464742D01*
X526693Y464710D01*
X526769Y464674D01*
X526844Y464634D01*
X526917Y464591D01*
X526988Y464545D01*
X527057Y464496D01*
X527124Y464443D01*
X527188Y464387D01*
X527249Y464329D01*
X527307Y464268D01*
X527363Y464204D01*
X527416Y464137D01*
X527465Y464068D01*
X527511Y463997D01*
X527554Y463924D01*
X527594Y463849D01*
X527630Y463773D01*
X527662Y463695D01*
X527691Y463615D01*
X527716Y463534D01*
X527737Y463452D01*
X527755Y463369D01*
X527768Y463285D01*
X527778Y463201D01*
X527784Y463117D01*
X527786Y463032D01*
X527786Y460096D01*
X527784Y460011D01*
X527778Y459927D01*
X527768Y459843D01*
X527755Y459759D01*
X527737Y459676D01*
X527716Y459594D01*
X527691Y459513D01*
X527662Y459433D01*
X527630Y459355D01*
X527594Y459279D01*
X527554Y459204D01*
X527511Y459131D01*
X527465Y459060D01*
X527416Y458991D01*
X527363Y458924D01*
X527307Y458860D01*
X527249Y458799D01*
X527188Y458741D01*
X527124Y458685D01*
X527057Y458632D01*
X526988Y458583D01*
X526917Y458537D01*
X526844Y458494D01*
X526769Y458454D01*
X526693Y458418D01*
X526615Y458386D01*
X526535Y458357D01*
X526454Y458332D01*
X526372Y458311D01*
X526289Y458293D01*
X526205Y458280D01*
X526121Y458270D01*
X526037Y458264D01*
X525952Y458262D01*
X524117Y458262D01*
X531677Y463398D02*
X533511Y464866D01*
X533511Y458262D01*
X531677Y458262D02*
X535345Y458262D01*
D12*
X416400Y433500D02*
X396400Y433500D01*
X396400Y455500D02*
X416400Y455500D01*
X398400Y429500D02*
X395400Y429500D01*
X398400Y429500D02*
X399400Y429500D01*
X397400Y431500D01*
X395400Y429500D01*
X396400Y429500D01*
X397400Y430500D01*
D10*
X397162Y458262D02*
X397162Y464866D01*
X397162Y458262D02*
X400097Y458262D01*
X403502Y458262D02*
X406437Y458262D01*
X403502Y458262D02*
X403502Y464866D01*
X406437Y464866D01*
X405703Y461931D02*
X403502Y461931D01*
X409817Y464866D02*
X409817Y458262D01*
X409817Y464866D02*
X411652Y464866D01*
X411737Y464864D01*
X411821Y464858D01*
X411905Y464848D01*
X411989Y464835D01*
X412072Y464817D01*
X412154Y464796D01*
X412235Y464771D01*
X412315Y464742D01*
X412393Y464710D01*
X412469Y464674D01*
X412544Y464634D01*
X412617Y464591D01*
X412688Y464545D01*
X412757Y464496D01*
X412824Y464443D01*
X412888Y464387D01*
X412949Y464329D01*
X413007Y464268D01*
X413063Y464204D01*
X413116Y464137D01*
X413165Y464068D01*
X413211Y463997D01*
X413254Y463924D01*
X413294Y463849D01*
X413330Y463773D01*
X413362Y463695D01*
X413391Y463615D01*
X413416Y463534D01*
X413437Y463452D01*
X413455Y463369D01*
X413468Y463285D01*
X413478Y463201D01*
X413484Y463117D01*
X413486Y463032D01*
X413486Y460096D01*
X413484Y460011D01*
X413478Y459927D01*
X413468Y459843D01*
X413455Y459759D01*
X413437Y459676D01*
X413416Y459594D01*
X413391Y459513D01*
X413362Y459433D01*
X413330Y459355D01*
X413294Y459279D01*
X413254Y459204D01*
X413211Y459131D01*
X413165Y459060D01*
X413116Y458991D01*
X413063Y458924D01*
X413007Y458860D01*
X412949Y458799D01*
X412888Y458741D01*
X412824Y458685D01*
X412757Y458632D01*
X412688Y458583D01*
X412617Y458537D01*
X412544Y458494D01*
X412469Y458454D01*
X412393Y458418D01*
X412315Y458386D01*
X412235Y458357D01*
X412154Y458332D01*
X412072Y458311D01*
X411989Y458293D01*
X411905Y458280D01*
X411821Y458270D01*
X411737Y458264D01*
X411652Y458262D01*
X409817Y458262D01*
X417377Y464132D02*
X417377Y464866D01*
X421045Y464866D01*
X419211Y458262D01*
X424692Y458262D02*
X426526Y458262D01*
X426611Y458264D01*
X426695Y458270D01*
X426779Y458280D01*
X426863Y458293D01*
X426946Y458311D01*
X427028Y458332D01*
X427109Y458357D01*
X427189Y458386D01*
X427267Y458418D01*
X427343Y458454D01*
X427418Y458494D01*
X427491Y458537D01*
X427562Y458583D01*
X427631Y458632D01*
X427698Y458685D01*
X427762Y458741D01*
X427823Y458799D01*
X427881Y458860D01*
X427937Y458924D01*
X427990Y458991D01*
X428039Y459060D01*
X428085Y459131D01*
X428128Y459204D01*
X428168Y459279D01*
X428204Y459355D01*
X428236Y459433D01*
X428265Y459513D01*
X428290Y459594D01*
X428311Y459676D01*
X428329Y459759D01*
X428342Y459843D01*
X428352Y459927D01*
X428358Y460011D01*
X428360Y460096D01*
X428358Y460181D01*
X428352Y460265D01*
X428342Y460349D01*
X428329Y460433D01*
X428311Y460516D01*
X428290Y460598D01*
X428265Y460679D01*
X428236Y460759D01*
X428204Y460837D01*
X428168Y460913D01*
X428128Y460988D01*
X428085Y461061D01*
X428039Y461132D01*
X427990Y461201D01*
X427937Y461268D01*
X427881Y461332D01*
X427823Y461393D01*
X427762Y461451D01*
X427698Y461507D01*
X427631Y461560D01*
X427562Y461609D01*
X427491Y461655D01*
X427418Y461698D01*
X427343Y461738D01*
X427267Y461774D01*
X427189Y461806D01*
X427109Y461835D01*
X427028Y461860D01*
X426946Y461881D01*
X426863Y461899D01*
X426779Y461912D01*
X426695Y461922D01*
X426611Y461928D01*
X426526Y461930D01*
X426893Y464866D02*
X424692Y464866D01*
X426893Y464866D02*
X426969Y464864D01*
X427044Y464858D01*
X427119Y464849D01*
X427193Y464835D01*
X427267Y464818D01*
X427339Y464796D01*
X427411Y464772D01*
X427481Y464743D01*
X427549Y464711D01*
X427616Y464676D01*
X427681Y464637D01*
X427744Y464594D01*
X427804Y464549D01*
X427862Y464501D01*
X427918Y464449D01*
X427970Y464395D01*
X428020Y464338D01*
X428067Y464279D01*
X428111Y464218D01*
X428152Y464154D01*
X428189Y464088D01*
X428223Y464020D01*
X428253Y463951D01*
X428280Y463880D01*
X428303Y463808D01*
X428322Y463735D01*
X428337Y463661D01*
X428349Y463586D01*
X428357Y463511D01*
X428361Y463436D01*
X428361Y463360D01*
X428357Y463285D01*
X428349Y463210D01*
X428337Y463135D01*
X428322Y463061D01*
X428303Y462988D01*
X428280Y462916D01*
X428253Y462845D01*
X428223Y462776D01*
X428189Y462708D01*
X428152Y462642D01*
X428111Y462578D01*
X428067Y462517D01*
X428020Y462458D01*
X427970Y462401D01*
X427918Y462347D01*
X427862Y462295D01*
X427804Y462247D01*
X427744Y462202D01*
X427681Y462159D01*
X427616Y462120D01*
X427549Y462085D01*
X427481Y462053D01*
X427411Y462024D01*
X427339Y462000D01*
X427267Y461978D01*
X427193Y461961D01*
X427119Y461947D01*
X427044Y461938D01*
X426969Y461932D01*
X426893Y461930D01*
X426893Y461931D02*
X425425Y461931D01*
X563880Y477520D02*
X566420Y477520D01*
X563880Y477520D02*
X563880Y474980D01*
X579120Y474980D02*
X579120Y477520D01*
X576580Y477520D01*
X579120Y464820D02*
X579120Y462280D01*
X576580Y462280D01*
X566420Y462280D02*
X563880Y462280D01*
X563880Y464820D01*
D12*
X564515Y480695D02*
X564515Y492125D01*
X567690Y492125D01*
X567801Y492123D01*
X567911Y492117D01*
X568022Y492108D01*
X568132Y492094D01*
X568241Y492077D01*
X568350Y492056D01*
X568458Y492031D01*
X568565Y492002D01*
X568671Y491970D01*
X568776Y491934D01*
X568879Y491894D01*
X568981Y491851D01*
X569082Y491804D01*
X569181Y491753D01*
X569278Y491700D01*
X569372Y491643D01*
X569465Y491582D01*
X569556Y491519D01*
X569645Y491452D01*
X569731Y491382D01*
X569814Y491309D01*
X569896Y491234D01*
X569974Y491156D01*
X570049Y491074D01*
X570122Y490991D01*
X570192Y490905D01*
X570259Y490816D01*
X570322Y490725D01*
X570383Y490632D01*
X570440Y490537D01*
X570493Y490441D01*
X570544Y490342D01*
X570591Y490241D01*
X570634Y490139D01*
X570674Y490036D01*
X570710Y489931D01*
X570742Y489825D01*
X570771Y489718D01*
X570796Y489610D01*
X570817Y489501D01*
X570834Y489392D01*
X570848Y489282D01*
X570857Y489171D01*
X570863Y489061D01*
X570865Y488950D01*
X570863Y488839D01*
X570857Y488729D01*
X570848Y488618D01*
X570834Y488508D01*
X570817Y488399D01*
X570796Y488290D01*
X570771Y488182D01*
X570742Y488075D01*
X570710Y487969D01*
X570674Y487864D01*
X570634Y487761D01*
X570591Y487659D01*
X570544Y487558D01*
X570493Y487459D01*
X570440Y487362D01*
X570383Y487268D01*
X570322Y487175D01*
X570259Y487084D01*
X570192Y486995D01*
X570122Y486909D01*
X570049Y486826D01*
X569974Y486744D01*
X569896Y486666D01*
X569814Y486591D01*
X569731Y486518D01*
X569645Y486448D01*
X569556Y486381D01*
X569465Y486318D01*
X569372Y486257D01*
X569278Y486200D01*
X569181Y486147D01*
X569082Y486096D01*
X568981Y486049D01*
X568879Y486006D01*
X568776Y485966D01*
X568671Y485930D01*
X568565Y485898D01*
X568458Y485869D01*
X568350Y485844D01*
X568241Y485823D01*
X568132Y485806D01*
X568022Y485792D01*
X567911Y485783D01*
X567801Y485777D01*
X567690Y485775D01*
X564515Y485775D01*
X574739Y480695D02*
X578549Y492125D01*
X582359Y480695D01*
X581406Y483553D02*
X575691Y483553D01*
X587185Y480695D02*
X587185Y492125D01*
X590360Y492125D01*
X590471Y492123D01*
X590581Y492117D01*
X590692Y492108D01*
X590802Y492094D01*
X590911Y492077D01*
X591020Y492056D01*
X591128Y492031D01*
X591235Y492002D01*
X591341Y491970D01*
X591446Y491934D01*
X591549Y491894D01*
X591651Y491851D01*
X591752Y491804D01*
X591851Y491753D01*
X591948Y491700D01*
X592042Y491643D01*
X592135Y491582D01*
X592226Y491519D01*
X592315Y491452D01*
X592401Y491382D01*
X592484Y491309D01*
X592566Y491234D01*
X592644Y491156D01*
X592719Y491074D01*
X592792Y490991D01*
X592862Y490905D01*
X592929Y490816D01*
X592992Y490725D01*
X593053Y490632D01*
X593110Y490538D01*
X593163Y490441D01*
X593214Y490342D01*
X593261Y490241D01*
X593304Y490139D01*
X593344Y490036D01*
X593380Y489931D01*
X593412Y489825D01*
X593441Y489718D01*
X593466Y489610D01*
X593487Y489501D01*
X593504Y489392D01*
X593518Y489282D01*
X593527Y489171D01*
X593533Y489061D01*
X593535Y488950D01*
X593535Y483870D01*
X593533Y483759D01*
X593527Y483649D01*
X593518Y483538D01*
X593504Y483428D01*
X593487Y483319D01*
X593466Y483210D01*
X593441Y483102D01*
X593412Y482995D01*
X593380Y482889D01*
X593344Y482784D01*
X593304Y482681D01*
X593261Y482579D01*
X593214Y482478D01*
X593163Y482379D01*
X593110Y482282D01*
X593053Y482188D01*
X592992Y482095D01*
X592929Y482004D01*
X592862Y481915D01*
X592792Y481829D01*
X592719Y481746D01*
X592644Y481664D01*
X592566Y481586D01*
X592484Y481511D01*
X592401Y481438D01*
X592315Y481368D01*
X592226Y481301D01*
X592135Y481238D01*
X592042Y481177D01*
X591948Y481120D01*
X591851Y481067D01*
X591752Y481016D01*
X591651Y480969D01*
X591549Y480926D01*
X591446Y480886D01*
X591341Y480850D01*
X591235Y480818D01*
X591128Y480789D01*
X591020Y480764D01*
X590911Y480743D01*
X590802Y480726D01*
X590692Y480712D01*
X590581Y480703D01*
X590471Y480697D01*
X590360Y480695D01*
X587185Y480695D01*
X598996Y489585D02*
X602171Y492125D01*
X602171Y480695D01*
X598996Y480695D02*
X605346Y480695D01*
D10*
X566420Y439420D02*
X563880Y439420D01*
X563880Y436880D01*
X579120Y436880D02*
X579120Y439420D01*
X576580Y439420D01*
X579120Y426720D02*
X579120Y424180D01*
X576580Y424180D01*
X566420Y424180D02*
X563880Y424180D01*
X563880Y426720D01*
D12*
X564515Y442595D02*
X564515Y454025D01*
X567690Y454025D01*
X567801Y454023D01*
X567911Y454017D01*
X568022Y454008D01*
X568132Y453994D01*
X568241Y453977D01*
X568350Y453956D01*
X568458Y453931D01*
X568565Y453902D01*
X568671Y453870D01*
X568776Y453834D01*
X568879Y453794D01*
X568981Y453751D01*
X569082Y453704D01*
X569181Y453653D01*
X569278Y453600D01*
X569372Y453543D01*
X569465Y453482D01*
X569556Y453419D01*
X569645Y453352D01*
X569731Y453282D01*
X569814Y453209D01*
X569896Y453134D01*
X569974Y453056D01*
X570049Y452974D01*
X570122Y452891D01*
X570192Y452805D01*
X570259Y452716D01*
X570322Y452625D01*
X570383Y452532D01*
X570440Y452437D01*
X570493Y452341D01*
X570544Y452242D01*
X570591Y452141D01*
X570634Y452039D01*
X570674Y451936D01*
X570710Y451831D01*
X570742Y451725D01*
X570771Y451618D01*
X570796Y451510D01*
X570817Y451401D01*
X570834Y451292D01*
X570848Y451182D01*
X570857Y451071D01*
X570863Y450961D01*
X570865Y450850D01*
X570863Y450739D01*
X570857Y450629D01*
X570848Y450518D01*
X570834Y450408D01*
X570817Y450299D01*
X570796Y450190D01*
X570771Y450082D01*
X570742Y449975D01*
X570710Y449869D01*
X570674Y449764D01*
X570634Y449661D01*
X570591Y449559D01*
X570544Y449458D01*
X570493Y449359D01*
X570440Y449262D01*
X570383Y449168D01*
X570322Y449075D01*
X570259Y448984D01*
X570192Y448895D01*
X570122Y448809D01*
X570049Y448726D01*
X569974Y448644D01*
X569896Y448566D01*
X569814Y448491D01*
X569731Y448418D01*
X569645Y448348D01*
X569556Y448281D01*
X569465Y448218D01*
X569372Y448157D01*
X569278Y448100D01*
X569181Y448047D01*
X569082Y447996D01*
X568981Y447949D01*
X568879Y447906D01*
X568776Y447866D01*
X568671Y447830D01*
X568565Y447798D01*
X568458Y447769D01*
X568350Y447744D01*
X568241Y447723D01*
X568132Y447706D01*
X568022Y447692D01*
X567911Y447683D01*
X567801Y447677D01*
X567690Y447675D01*
X564515Y447675D01*
X574739Y442595D02*
X578549Y454025D01*
X582359Y442595D01*
X581406Y445453D02*
X575691Y445453D01*
X587185Y442595D02*
X587185Y454025D01*
X590360Y454025D01*
X590471Y454023D01*
X590581Y454017D01*
X590692Y454008D01*
X590802Y453994D01*
X590911Y453977D01*
X591020Y453956D01*
X591128Y453931D01*
X591235Y453902D01*
X591341Y453870D01*
X591446Y453834D01*
X591549Y453794D01*
X591651Y453751D01*
X591752Y453704D01*
X591851Y453653D01*
X591948Y453600D01*
X592042Y453543D01*
X592135Y453482D01*
X592226Y453419D01*
X592315Y453352D01*
X592401Y453282D01*
X592484Y453209D01*
X592566Y453134D01*
X592644Y453056D01*
X592719Y452974D01*
X592792Y452891D01*
X592862Y452805D01*
X592929Y452716D01*
X592992Y452625D01*
X593053Y452532D01*
X593110Y452438D01*
X593163Y452341D01*
X593214Y452242D01*
X593261Y452141D01*
X593304Y452039D01*
X593344Y451936D01*
X593380Y451831D01*
X593412Y451725D01*
X593441Y451618D01*
X593466Y451510D01*
X593487Y451401D01*
X593504Y451292D01*
X593518Y451182D01*
X593527Y451071D01*
X593533Y450961D01*
X593535Y450850D01*
X593535Y445770D01*
X593533Y445659D01*
X593527Y445549D01*
X593518Y445438D01*
X593504Y445328D01*
X593487Y445219D01*
X593466Y445110D01*
X593441Y445002D01*
X593412Y444895D01*
X593380Y444789D01*
X593344Y444684D01*
X593304Y444581D01*
X593261Y444479D01*
X593214Y444378D01*
X593163Y444279D01*
X593110Y444182D01*
X593053Y444088D01*
X592992Y443995D01*
X592929Y443904D01*
X592862Y443815D01*
X592792Y443729D01*
X592719Y443646D01*
X592644Y443564D01*
X592566Y443486D01*
X592484Y443411D01*
X592401Y443338D01*
X592315Y443268D01*
X592226Y443201D01*
X592135Y443138D01*
X592042Y443077D01*
X591948Y443020D01*
X591851Y442967D01*
X591752Y442916D01*
X591651Y442869D01*
X591549Y442826D01*
X591446Y442786D01*
X591341Y442750D01*
X591235Y442718D01*
X591128Y442689D01*
X591020Y442664D01*
X590911Y442643D01*
X590802Y442626D01*
X590692Y442612D01*
X590581Y442603D01*
X590471Y442597D01*
X590360Y442595D01*
X587185Y442595D01*
X602488Y454026D02*
X602592Y454024D01*
X602697Y454018D01*
X602801Y454009D01*
X602904Y453996D01*
X603007Y453978D01*
X603109Y453958D01*
X603211Y453933D01*
X603311Y453905D01*
X603411Y453873D01*
X603509Y453837D01*
X603606Y453798D01*
X603701Y453756D01*
X603795Y453710D01*
X603887Y453660D01*
X603977Y453608D01*
X604065Y453552D01*
X604151Y453492D01*
X604235Y453430D01*
X604316Y453365D01*
X604395Y453297D01*
X604472Y453225D01*
X604545Y453152D01*
X604617Y453075D01*
X604685Y452996D01*
X604750Y452915D01*
X604812Y452831D01*
X604872Y452745D01*
X604928Y452657D01*
X604980Y452567D01*
X605030Y452475D01*
X605076Y452381D01*
X605118Y452286D01*
X605157Y452189D01*
X605193Y452091D01*
X605225Y451991D01*
X605253Y451891D01*
X605278Y451789D01*
X605298Y451687D01*
X605316Y451584D01*
X605329Y451481D01*
X605338Y451377D01*
X605344Y451272D01*
X605346Y451168D01*
X602488Y454025D02*
X602370Y454023D01*
X602251Y454017D01*
X602133Y454008D01*
X602016Y453995D01*
X601899Y453977D01*
X601782Y453957D01*
X601666Y453932D01*
X601551Y453904D01*
X601438Y453871D01*
X601325Y453836D01*
X601213Y453796D01*
X601103Y453754D01*
X600994Y453707D01*
X600886Y453657D01*
X600781Y453604D01*
X600677Y453547D01*
X600575Y453487D01*
X600475Y453424D01*
X600377Y453357D01*
X600281Y453288D01*
X600188Y453215D01*
X600097Y453139D01*
X600008Y453061D01*
X599922Y452979D01*
X599839Y452895D01*
X599758Y452809D01*
X599681Y452719D01*
X599606Y452628D01*
X599534Y452534D01*
X599465Y452437D01*
X599400Y452339D01*
X599337Y452238D01*
X599278Y452135D01*
X599222Y452031D01*
X599170Y451925D01*
X599121Y451817D01*
X599076Y451708D01*
X599034Y451597D01*
X598996Y451485D01*
X604393Y448946D02*
X604469Y449021D01*
X604544Y449100D01*
X604615Y449181D01*
X604684Y449265D01*
X604749Y449351D01*
X604811Y449439D01*
X604871Y449529D01*
X604927Y449621D01*
X604980Y449716D01*
X605029Y449812D01*
X605075Y449910D01*
X605118Y450009D01*
X605157Y450110D01*
X605192Y450212D01*
X605224Y450315D01*
X605252Y450419D01*
X605277Y450524D01*
X605298Y450631D01*
X605315Y450737D01*
X605328Y450844D01*
X605337Y450952D01*
X605343Y451060D01*
X605345Y451168D01*
X604393Y448945D02*
X598996Y442595D01*
X605346Y442595D01*
D10*
X374650Y207969D02*
X374457Y207818D01*
X374260Y207672D01*
X374060Y207531D01*
X373857Y207394D01*
X373650Y207263D01*
X373440Y207136D01*
X373228Y207015D01*
X373012Y206899D01*
X372793Y206788D01*
X372572Y206682D01*
X372349Y206582D01*
X372123Y206487D01*
X371895Y206397D01*
X371665Y206313D01*
X371433Y206235D01*
X371199Y206162D01*
X370963Y206095D01*
X370726Y206034D01*
X370488Y205978D01*
X370248Y205928D01*
X370007Y205884D01*
X369765Y205846D01*
X369522Y205814D01*
X369278Y205787D01*
X369034Y205767D01*
X368790Y205752D01*
X368545Y205743D01*
X368300Y205740D01*
X368055Y205743D01*
X367810Y205752D01*
X367566Y205767D01*
X367322Y205787D01*
X367078Y205814D01*
X366835Y205846D01*
X366593Y205884D01*
X366352Y205928D01*
X366112Y205978D01*
X365874Y206034D01*
X365637Y206095D01*
X365401Y206162D01*
X365167Y206235D01*
X364935Y206313D01*
X364705Y206397D01*
X364477Y206487D01*
X364251Y206582D01*
X364028Y206682D01*
X363807Y206788D01*
X363588Y206899D01*
X363372Y207015D01*
X363160Y207136D01*
X362950Y207263D01*
X362743Y207394D01*
X362540Y207531D01*
X362340Y207672D01*
X362143Y207818D01*
X361950Y207969D01*
X361950Y223831D02*
X362143Y223982D01*
X362340Y224128D01*
X362540Y224269D01*
X362743Y224406D01*
X362950Y224537D01*
X363160Y224664D01*
X363372Y224785D01*
X363588Y224901D01*
X363807Y225012D01*
X364028Y225118D01*
X364251Y225218D01*
X364477Y225313D01*
X364705Y225403D01*
X364935Y225487D01*
X365167Y225565D01*
X365401Y225638D01*
X365637Y225705D01*
X365874Y225766D01*
X366112Y225822D01*
X366352Y225872D01*
X366593Y225916D01*
X366835Y225954D01*
X367078Y225986D01*
X367322Y226013D01*
X367566Y226033D01*
X367810Y226048D01*
X368055Y226057D01*
X368300Y226060D01*
X368545Y226057D01*
X368790Y226048D01*
X369034Y226033D01*
X369278Y226013D01*
X369522Y225986D01*
X369765Y225954D01*
X370007Y225916D01*
X370248Y225872D01*
X370488Y225822D01*
X370726Y225766D01*
X370963Y225705D01*
X371199Y225638D01*
X371433Y225565D01*
X371665Y225487D01*
X371895Y225403D01*
X372123Y225313D01*
X372349Y225218D01*
X372572Y225118D01*
X372793Y225012D01*
X373012Y224901D01*
X373228Y224785D01*
X373440Y224664D01*
X373650Y224537D01*
X373857Y224406D01*
X374060Y224269D01*
X374260Y224128D01*
X374457Y223982D01*
X374650Y223831D01*
X376555Y227170D02*
X376279Y227367D01*
X375997Y227558D01*
X375712Y227742D01*
X375422Y227918D01*
X375127Y228088D01*
X374829Y228250D01*
X374527Y228406D01*
X374221Y228553D01*
X373912Y228693D01*
X373599Y228826D01*
X373283Y228951D01*
X372964Y229068D01*
X372643Y229178D01*
X372319Y229280D01*
X371992Y229373D01*
X371663Y229459D01*
X371333Y229537D01*
X371000Y229607D01*
X370666Y229668D01*
X370331Y229722D01*
X369994Y229767D01*
X369657Y229804D01*
X369318Y229833D01*
X368979Y229853D01*
X368640Y229866D01*
X368300Y229870D01*
X367960Y229866D01*
X367621Y229853D01*
X367282Y229833D01*
X366943Y229804D01*
X366606Y229767D01*
X366269Y229722D01*
X365934Y229668D01*
X365600Y229607D01*
X365267Y229537D01*
X364937Y229459D01*
X364608Y229373D01*
X364281Y229280D01*
X363957Y229178D01*
X363636Y229068D01*
X363317Y228951D01*
X363001Y228826D01*
X362688Y228693D01*
X362379Y228553D01*
X362073Y228406D01*
X361771Y228250D01*
X361473Y228088D01*
X361178Y227918D01*
X360888Y227742D01*
X360603Y227558D01*
X360321Y227367D01*
X360045Y227170D01*
X360045Y204630D02*
X360321Y204433D01*
X360603Y204242D01*
X360888Y204058D01*
X361178Y203882D01*
X361473Y203712D01*
X361771Y203550D01*
X362073Y203394D01*
X362379Y203247D01*
X362688Y203107D01*
X363001Y202974D01*
X363317Y202849D01*
X363636Y202732D01*
X363957Y202622D01*
X364281Y202520D01*
X364608Y202427D01*
X364937Y202341D01*
X365267Y202263D01*
X365600Y202193D01*
X365934Y202132D01*
X366269Y202078D01*
X366606Y202033D01*
X366943Y201996D01*
X367282Y201967D01*
X367621Y201947D01*
X367960Y201934D01*
X368300Y201930D01*
X368640Y201934D01*
X368979Y201947D01*
X369318Y201967D01*
X369657Y201996D01*
X369994Y202033D01*
X370331Y202078D01*
X370666Y202132D01*
X371000Y202193D01*
X371333Y202263D01*
X371663Y202341D01*
X371992Y202427D01*
X372319Y202520D01*
X372643Y202622D01*
X372964Y202732D01*
X373283Y202849D01*
X373599Y202974D01*
X373912Y203107D01*
X374221Y203247D01*
X374527Y203394D01*
X374829Y203550D01*
X375127Y203712D01*
X375422Y203882D01*
X375712Y204058D01*
X375997Y204242D01*
X376279Y204433D01*
X376555Y204630D01*
X360045Y204630D02*
X359770Y204680D01*
X359496Y204736D01*
X359224Y204800D01*
X358953Y204870D01*
X358684Y204947D01*
X358417Y205030D01*
X358152Y205119D01*
X357890Y205216D01*
X357629Y205318D01*
X357372Y205427D01*
X357117Y205542D01*
X356865Y205663D01*
X356616Y205791D01*
X356616Y226009D02*
X356865Y226137D01*
X357117Y226258D01*
X357372Y226373D01*
X357629Y226482D01*
X357890Y226584D01*
X358152Y226681D01*
X358417Y226770D01*
X358684Y226853D01*
X358953Y226930D01*
X359224Y227000D01*
X359496Y227064D01*
X359770Y227120D01*
X360045Y227170D01*
X376555Y204630D02*
X376830Y204680D01*
X377104Y204736D01*
X377376Y204800D01*
X377647Y204870D01*
X377916Y204947D01*
X378183Y205030D01*
X378448Y205119D01*
X378710Y205216D01*
X378971Y205318D01*
X379228Y205427D01*
X379483Y205542D01*
X379735Y205663D01*
X379984Y205791D01*
X379984Y226009D02*
X379735Y226137D01*
X379483Y226258D01*
X379228Y226373D01*
X378971Y226482D01*
X378710Y226584D01*
X378448Y226681D01*
X378183Y226770D01*
X377916Y226853D01*
X377647Y226930D01*
X377376Y227000D01*
X377104Y227064D01*
X376830Y227120D01*
X376555Y227170D01*
D12*
X343535Y235585D02*
X343535Y247015D01*
X346710Y247015D01*
X346821Y247013D01*
X346931Y247007D01*
X347042Y246998D01*
X347152Y246984D01*
X347261Y246967D01*
X347370Y246946D01*
X347478Y246921D01*
X347585Y246892D01*
X347691Y246860D01*
X347796Y246824D01*
X347899Y246784D01*
X348001Y246741D01*
X348102Y246694D01*
X348201Y246643D01*
X348298Y246590D01*
X348392Y246533D01*
X348485Y246472D01*
X348576Y246409D01*
X348665Y246342D01*
X348751Y246272D01*
X348834Y246199D01*
X348916Y246124D01*
X348994Y246046D01*
X349069Y245964D01*
X349142Y245881D01*
X349212Y245795D01*
X349279Y245706D01*
X349342Y245615D01*
X349403Y245522D01*
X349460Y245427D01*
X349513Y245331D01*
X349564Y245232D01*
X349611Y245131D01*
X349654Y245029D01*
X349694Y244926D01*
X349730Y244821D01*
X349762Y244715D01*
X349791Y244608D01*
X349816Y244500D01*
X349837Y244391D01*
X349854Y244282D01*
X349868Y244172D01*
X349877Y244061D01*
X349883Y243951D01*
X349885Y243840D01*
X349883Y243729D01*
X349877Y243619D01*
X349868Y243508D01*
X349854Y243398D01*
X349837Y243289D01*
X349816Y243180D01*
X349791Y243072D01*
X349762Y242965D01*
X349730Y242859D01*
X349694Y242754D01*
X349654Y242651D01*
X349611Y242549D01*
X349564Y242448D01*
X349513Y242349D01*
X349460Y242252D01*
X349403Y242158D01*
X349342Y242065D01*
X349279Y241974D01*
X349212Y241885D01*
X349142Y241799D01*
X349069Y241716D01*
X348994Y241634D01*
X348916Y241556D01*
X348834Y241481D01*
X348751Y241408D01*
X348665Y241338D01*
X348576Y241271D01*
X348485Y241208D01*
X348392Y241147D01*
X348298Y241090D01*
X348201Y241037D01*
X348102Y240986D01*
X348001Y240939D01*
X347899Y240896D01*
X347796Y240856D01*
X347691Y240820D01*
X347585Y240788D01*
X347478Y240759D01*
X347370Y240734D01*
X347261Y240713D01*
X347152Y240696D01*
X347042Y240682D01*
X346931Y240673D01*
X346821Y240667D01*
X346710Y240665D01*
X343535Y240665D01*
X347345Y240665D02*
X349885Y235585D01*
X354882Y244475D02*
X358057Y247015D01*
X358057Y235585D01*
X354882Y235585D02*
X361232Y235585D01*
X402348Y377825D02*
X402348Y382651D01*
X403689Y382651D01*
X403760Y382649D01*
X403832Y382643D01*
X403902Y382634D01*
X403972Y382621D01*
X404042Y382604D01*
X404110Y382583D01*
X404177Y382559D01*
X404243Y382531D01*
X404307Y382500D01*
X404370Y382465D01*
X404430Y382427D01*
X404489Y382386D01*
X404545Y382342D01*
X404599Y382295D01*
X404650Y382246D01*
X404698Y382193D01*
X404744Y382138D01*
X404786Y382081D01*
X404826Y382021D01*
X404862Y381960D01*
X404895Y381896D01*
X404924Y381831D01*
X404950Y381765D01*
X404973Y381697D01*
X404992Y381628D01*
X405007Y381558D01*
X405018Y381488D01*
X405026Y381417D01*
X405030Y381346D01*
X405030Y381274D01*
X405026Y381203D01*
X405018Y381132D01*
X405007Y381062D01*
X404992Y380992D01*
X404973Y380923D01*
X404950Y380855D01*
X404924Y380789D01*
X404895Y380724D01*
X404862Y380660D01*
X404826Y380599D01*
X404786Y380539D01*
X404744Y380482D01*
X404698Y380427D01*
X404650Y380374D01*
X404599Y380325D01*
X404545Y380278D01*
X404489Y380234D01*
X404430Y380193D01*
X404370Y380155D01*
X404307Y380120D01*
X404243Y380089D01*
X404177Y380061D01*
X404110Y380037D01*
X404042Y380016D01*
X403972Y379999D01*
X403902Y379986D01*
X403832Y379977D01*
X403760Y379971D01*
X403689Y379969D01*
X403689Y379970D02*
X402348Y379970D01*
X403957Y379970D02*
X405029Y377825D01*
X409245Y382651D02*
X409313Y382649D01*
X409380Y382643D01*
X409447Y382634D01*
X409514Y382621D01*
X409579Y382604D01*
X409644Y382583D01*
X409707Y382559D01*
X409769Y382531D01*
X409829Y382500D01*
X409887Y382466D01*
X409943Y382428D01*
X409998Y382388D01*
X410049Y382344D01*
X410098Y382297D01*
X410145Y382248D01*
X410189Y382197D01*
X410229Y382142D01*
X410267Y382086D01*
X410301Y382028D01*
X410332Y381968D01*
X410360Y381906D01*
X410384Y381843D01*
X410405Y381778D01*
X410422Y381713D01*
X410435Y381646D01*
X410444Y381579D01*
X410450Y381512D01*
X410452Y381444D01*
X409245Y382651D02*
X409167Y382649D01*
X409089Y382643D01*
X409012Y382633D01*
X408935Y382620D01*
X408859Y382602D01*
X408784Y382581D01*
X408710Y382556D01*
X408638Y382527D01*
X408567Y382495D01*
X408498Y382459D01*
X408430Y382420D01*
X408365Y382377D01*
X408302Y382331D01*
X408241Y382282D01*
X408183Y382230D01*
X408128Y382175D01*
X408075Y382118D01*
X408026Y382058D01*
X407979Y381995D01*
X407936Y381931D01*
X407896Y381864D01*
X407859Y381795D01*
X407826Y381724D01*
X407796Y381652D01*
X407770Y381579D01*
X410050Y380506D02*
X410099Y380555D01*
X410146Y380607D01*
X410189Y380662D01*
X410230Y380719D01*
X410268Y380778D01*
X410302Y380839D01*
X410333Y380902D01*
X410361Y380966D01*
X410385Y381032D01*
X410405Y381098D01*
X410422Y381166D01*
X410435Y381235D01*
X410444Y381304D01*
X410450Y381374D01*
X410452Y381444D01*
X410050Y380506D02*
X407771Y377825D01*
X410452Y377825D01*
X453148Y293751D02*
X453148Y288925D01*
X453148Y293751D02*
X454489Y293751D01*
X454560Y293749D01*
X454632Y293743D01*
X454702Y293734D01*
X454772Y293721D01*
X454842Y293704D01*
X454910Y293683D01*
X454977Y293659D01*
X455043Y293631D01*
X455107Y293600D01*
X455170Y293565D01*
X455230Y293527D01*
X455289Y293486D01*
X455345Y293442D01*
X455399Y293395D01*
X455450Y293346D01*
X455498Y293293D01*
X455544Y293238D01*
X455586Y293181D01*
X455626Y293121D01*
X455662Y293060D01*
X455695Y292996D01*
X455724Y292931D01*
X455750Y292865D01*
X455773Y292797D01*
X455792Y292728D01*
X455807Y292658D01*
X455818Y292588D01*
X455826Y292517D01*
X455830Y292446D01*
X455830Y292374D01*
X455826Y292303D01*
X455818Y292232D01*
X455807Y292162D01*
X455792Y292092D01*
X455773Y292023D01*
X455750Y291955D01*
X455724Y291889D01*
X455695Y291824D01*
X455662Y291760D01*
X455626Y291699D01*
X455586Y291639D01*
X455544Y291582D01*
X455498Y291527D01*
X455450Y291474D01*
X455399Y291425D01*
X455345Y291378D01*
X455289Y291334D01*
X455230Y291293D01*
X455170Y291255D01*
X455107Y291220D01*
X455043Y291189D01*
X454977Y291161D01*
X454910Y291137D01*
X454842Y291116D01*
X454772Y291099D01*
X454702Y291086D01*
X454632Y291077D01*
X454560Y291071D01*
X454489Y291069D01*
X454489Y291070D02*
X453148Y291070D01*
X454757Y291070D02*
X455829Y288925D01*
X458571Y288925D02*
X459911Y288925D01*
X459982Y288927D01*
X460054Y288933D01*
X460124Y288942D01*
X460194Y288955D01*
X460264Y288972D01*
X460332Y288993D01*
X460399Y289017D01*
X460465Y289045D01*
X460529Y289076D01*
X460592Y289111D01*
X460652Y289149D01*
X460711Y289190D01*
X460767Y289234D01*
X460821Y289281D01*
X460872Y289330D01*
X460920Y289383D01*
X460966Y289438D01*
X461008Y289495D01*
X461048Y289555D01*
X461084Y289616D01*
X461117Y289680D01*
X461146Y289745D01*
X461172Y289811D01*
X461195Y289879D01*
X461214Y289948D01*
X461229Y290018D01*
X461240Y290088D01*
X461248Y290159D01*
X461252Y290230D01*
X461252Y290302D01*
X461248Y290373D01*
X461240Y290444D01*
X461229Y290514D01*
X461214Y290584D01*
X461195Y290653D01*
X461172Y290721D01*
X461146Y290787D01*
X461117Y290852D01*
X461084Y290916D01*
X461048Y290977D01*
X461008Y291037D01*
X460966Y291094D01*
X460920Y291149D01*
X460872Y291202D01*
X460821Y291251D01*
X460767Y291298D01*
X460711Y291342D01*
X460652Y291383D01*
X460592Y291421D01*
X460529Y291456D01*
X460465Y291487D01*
X460399Y291515D01*
X460332Y291539D01*
X460264Y291560D01*
X460194Y291577D01*
X460124Y291590D01*
X460054Y291599D01*
X459982Y291605D01*
X459911Y291607D01*
X460179Y293751D02*
X458571Y293751D01*
X460179Y293751D02*
X460244Y293749D01*
X460308Y293743D01*
X460372Y293733D01*
X460436Y293720D01*
X460498Y293702D01*
X460559Y293681D01*
X460619Y293657D01*
X460677Y293628D01*
X460734Y293596D01*
X460788Y293561D01*
X460840Y293523D01*
X460890Y293481D01*
X460937Y293437D01*
X460981Y293390D01*
X461023Y293340D01*
X461061Y293288D01*
X461096Y293234D01*
X461128Y293177D01*
X461157Y293119D01*
X461181Y293059D01*
X461202Y292998D01*
X461220Y292936D01*
X461233Y292872D01*
X461243Y292808D01*
X461249Y292744D01*
X461251Y292679D01*
X461249Y292614D01*
X461243Y292550D01*
X461233Y292486D01*
X461220Y292422D01*
X461202Y292360D01*
X461181Y292299D01*
X461157Y292239D01*
X461128Y292181D01*
X461096Y292124D01*
X461061Y292070D01*
X461023Y292018D01*
X460981Y291968D01*
X460937Y291921D01*
X460890Y291877D01*
X460840Y291835D01*
X460788Y291797D01*
X460734Y291762D01*
X460677Y291730D01*
X460619Y291701D01*
X460559Y291677D01*
X460498Y291656D01*
X460436Y291638D01*
X460372Y291625D01*
X460308Y291615D01*
X460244Y291609D01*
X460179Y291607D01*
X460179Y291606D02*
X459107Y291606D01*
X503948Y269875D02*
X503948Y265049D01*
X503948Y269875D02*
X505289Y269875D01*
X505360Y269873D01*
X505432Y269867D01*
X505502Y269858D01*
X505572Y269845D01*
X505642Y269828D01*
X505710Y269807D01*
X505777Y269783D01*
X505843Y269755D01*
X505907Y269724D01*
X505970Y269689D01*
X506030Y269651D01*
X506089Y269610D01*
X506145Y269566D01*
X506199Y269519D01*
X506250Y269470D01*
X506298Y269417D01*
X506344Y269362D01*
X506386Y269305D01*
X506426Y269245D01*
X506462Y269184D01*
X506495Y269120D01*
X506524Y269055D01*
X506550Y268989D01*
X506573Y268921D01*
X506592Y268852D01*
X506607Y268782D01*
X506618Y268712D01*
X506626Y268641D01*
X506630Y268570D01*
X506630Y268498D01*
X506626Y268427D01*
X506618Y268356D01*
X506607Y268286D01*
X506592Y268216D01*
X506573Y268147D01*
X506550Y268079D01*
X506524Y268013D01*
X506495Y267948D01*
X506462Y267884D01*
X506426Y267823D01*
X506386Y267763D01*
X506344Y267706D01*
X506298Y267651D01*
X506250Y267598D01*
X506199Y267549D01*
X506145Y267502D01*
X506089Y267458D01*
X506030Y267417D01*
X505970Y267379D01*
X505907Y267344D01*
X505843Y267313D01*
X505777Y267285D01*
X505710Y267261D01*
X505642Y267240D01*
X505572Y267223D01*
X505502Y267210D01*
X505432Y267201D01*
X505360Y267195D01*
X505289Y267193D01*
X505289Y267194D02*
X503948Y267194D01*
X505557Y267194D02*
X506629Y265049D01*
X509371Y266121D02*
X510443Y269875D01*
X509371Y266121D02*
X512052Y266121D01*
X511248Y267194D02*
X511248Y265049D01*
X529348Y377825D02*
X529348Y382651D01*
X530689Y382651D01*
X530760Y382649D01*
X530832Y382643D01*
X530902Y382634D01*
X530972Y382621D01*
X531042Y382604D01*
X531110Y382583D01*
X531177Y382559D01*
X531243Y382531D01*
X531307Y382500D01*
X531370Y382465D01*
X531430Y382427D01*
X531489Y382386D01*
X531545Y382342D01*
X531599Y382295D01*
X531650Y382246D01*
X531698Y382193D01*
X531744Y382138D01*
X531786Y382081D01*
X531826Y382021D01*
X531862Y381960D01*
X531895Y381896D01*
X531924Y381831D01*
X531950Y381765D01*
X531973Y381697D01*
X531992Y381628D01*
X532007Y381558D01*
X532018Y381488D01*
X532026Y381417D01*
X532030Y381346D01*
X532030Y381274D01*
X532026Y381203D01*
X532018Y381132D01*
X532007Y381062D01*
X531992Y380992D01*
X531973Y380923D01*
X531950Y380855D01*
X531924Y380789D01*
X531895Y380724D01*
X531862Y380660D01*
X531826Y380599D01*
X531786Y380539D01*
X531744Y380482D01*
X531698Y380427D01*
X531650Y380374D01*
X531599Y380325D01*
X531545Y380278D01*
X531489Y380234D01*
X531430Y380193D01*
X531370Y380155D01*
X531307Y380120D01*
X531243Y380089D01*
X531177Y380061D01*
X531110Y380037D01*
X531042Y380016D01*
X530972Y379999D01*
X530902Y379986D01*
X530832Y379977D01*
X530760Y379971D01*
X530689Y379969D01*
X530689Y379970D02*
X529348Y379970D01*
X530957Y379970D02*
X532029Y377825D01*
X534771Y377825D02*
X536379Y377825D01*
X536444Y377827D01*
X536508Y377833D01*
X536572Y377843D01*
X536636Y377856D01*
X536698Y377874D01*
X536759Y377895D01*
X536819Y377919D01*
X536877Y377948D01*
X536934Y377980D01*
X536988Y378015D01*
X537040Y378053D01*
X537090Y378095D01*
X537137Y378139D01*
X537181Y378186D01*
X537223Y378236D01*
X537261Y378288D01*
X537296Y378342D01*
X537328Y378399D01*
X537357Y378457D01*
X537381Y378517D01*
X537402Y378578D01*
X537420Y378640D01*
X537433Y378704D01*
X537443Y378768D01*
X537449Y378832D01*
X537451Y378897D01*
X537452Y378897D02*
X537452Y379434D01*
X537451Y379434D02*
X537449Y379499D01*
X537443Y379563D01*
X537433Y379627D01*
X537420Y379691D01*
X537402Y379753D01*
X537381Y379814D01*
X537357Y379874D01*
X537328Y379932D01*
X537296Y379989D01*
X537261Y380043D01*
X537223Y380095D01*
X537181Y380145D01*
X537137Y380192D01*
X537090Y380236D01*
X537040Y380278D01*
X536988Y380316D01*
X536934Y380351D01*
X536877Y380383D01*
X536819Y380412D01*
X536759Y380436D01*
X536698Y380457D01*
X536636Y380475D01*
X536572Y380488D01*
X536508Y380498D01*
X536444Y380504D01*
X536379Y380506D01*
X534771Y380506D01*
X534771Y382651D01*
X537452Y382651D01*
X529348Y506349D02*
X529348Y511175D01*
X530689Y511175D01*
X530760Y511173D01*
X530832Y511167D01*
X530902Y511158D01*
X530972Y511145D01*
X531042Y511128D01*
X531110Y511107D01*
X531177Y511083D01*
X531243Y511055D01*
X531307Y511024D01*
X531370Y510989D01*
X531430Y510951D01*
X531489Y510910D01*
X531545Y510866D01*
X531599Y510819D01*
X531650Y510770D01*
X531698Y510717D01*
X531744Y510662D01*
X531786Y510605D01*
X531826Y510545D01*
X531862Y510484D01*
X531895Y510420D01*
X531924Y510355D01*
X531950Y510289D01*
X531973Y510221D01*
X531992Y510152D01*
X532007Y510082D01*
X532018Y510012D01*
X532026Y509941D01*
X532030Y509870D01*
X532030Y509798D01*
X532026Y509727D01*
X532018Y509656D01*
X532007Y509586D01*
X531992Y509516D01*
X531973Y509447D01*
X531950Y509379D01*
X531924Y509313D01*
X531895Y509248D01*
X531862Y509184D01*
X531826Y509123D01*
X531786Y509063D01*
X531744Y509006D01*
X531698Y508951D01*
X531650Y508898D01*
X531599Y508849D01*
X531545Y508802D01*
X531489Y508758D01*
X531430Y508717D01*
X531370Y508679D01*
X531307Y508644D01*
X531243Y508613D01*
X531177Y508585D01*
X531110Y508561D01*
X531042Y508540D01*
X530972Y508523D01*
X530902Y508510D01*
X530832Y508501D01*
X530760Y508495D01*
X530689Y508493D01*
X530689Y508494D02*
X529348Y508494D01*
X530957Y508494D02*
X532029Y506349D01*
X534771Y509030D02*
X536379Y509030D01*
X536444Y509028D01*
X536508Y509022D01*
X536572Y509012D01*
X536636Y508999D01*
X536698Y508981D01*
X536759Y508960D01*
X536819Y508936D01*
X536877Y508907D01*
X536934Y508875D01*
X536988Y508840D01*
X537040Y508802D01*
X537090Y508760D01*
X537137Y508716D01*
X537181Y508669D01*
X537223Y508619D01*
X537261Y508567D01*
X537296Y508513D01*
X537328Y508456D01*
X537357Y508398D01*
X537381Y508338D01*
X537402Y508277D01*
X537420Y508215D01*
X537433Y508151D01*
X537443Y508087D01*
X537449Y508023D01*
X537451Y507958D01*
X537452Y507958D02*
X537452Y507690D01*
X537450Y507619D01*
X537444Y507547D01*
X537435Y507477D01*
X537422Y507407D01*
X537405Y507337D01*
X537384Y507269D01*
X537360Y507202D01*
X537332Y507136D01*
X537301Y507072D01*
X537266Y507009D01*
X537228Y506949D01*
X537187Y506890D01*
X537143Y506834D01*
X537096Y506780D01*
X537047Y506729D01*
X536994Y506681D01*
X536939Y506635D01*
X536882Y506593D01*
X536822Y506553D01*
X536761Y506517D01*
X536697Y506484D01*
X536632Y506455D01*
X536566Y506429D01*
X536498Y506406D01*
X536429Y506387D01*
X536359Y506372D01*
X536289Y506361D01*
X536218Y506353D01*
X536147Y506349D01*
X536075Y506349D01*
X536004Y506353D01*
X535933Y506361D01*
X535863Y506372D01*
X535793Y506387D01*
X535724Y506406D01*
X535656Y506429D01*
X535590Y506455D01*
X535525Y506484D01*
X535461Y506517D01*
X535400Y506553D01*
X535340Y506593D01*
X535283Y506635D01*
X535228Y506681D01*
X535175Y506729D01*
X535126Y506780D01*
X535079Y506834D01*
X535035Y506890D01*
X534994Y506949D01*
X534956Y507009D01*
X534921Y507072D01*
X534890Y507136D01*
X534862Y507202D01*
X534838Y507269D01*
X534817Y507337D01*
X534800Y507407D01*
X534787Y507477D01*
X534778Y507547D01*
X534772Y507619D01*
X534770Y507690D01*
X534771Y507690D02*
X534771Y509030D01*
X534773Y509121D01*
X534779Y509212D01*
X534788Y509302D01*
X534802Y509393D01*
X534819Y509482D01*
X534840Y509570D01*
X534865Y509658D01*
X534894Y509745D01*
X534926Y509830D01*
X534961Y509914D01*
X535001Y509996D01*
X535043Y510076D01*
X535089Y510155D01*
X535139Y510231D01*
X535191Y510305D01*
X535247Y510378D01*
X535306Y510447D01*
X535367Y510514D01*
X535432Y510579D01*
X535499Y510640D01*
X535568Y510699D01*
X535640Y510755D01*
X535715Y510807D01*
X535791Y510857D01*
X535870Y510903D01*
X535950Y510945D01*
X536032Y510985D01*
X536116Y511020D01*
X536201Y511052D01*
X536288Y511081D01*
X536375Y511106D01*
X536464Y511127D01*
X536553Y511144D01*
X536644Y511158D01*
X536734Y511167D01*
X536825Y511173D01*
X536916Y511175D01*
D13*
X486390Y360300D02*
X486392Y360363D01*
X486398Y360425D01*
X486408Y360487D01*
X486421Y360549D01*
X486439Y360609D01*
X486460Y360668D01*
X486485Y360726D01*
X486514Y360782D01*
X486546Y360836D01*
X486581Y360888D01*
X486619Y360937D01*
X486661Y360985D01*
X486705Y361029D01*
X486753Y361071D01*
X486802Y361109D01*
X486854Y361144D01*
X486908Y361176D01*
X486964Y361205D01*
X487022Y361230D01*
X487081Y361251D01*
X487141Y361269D01*
X487203Y361282D01*
X487265Y361292D01*
X487327Y361298D01*
X487390Y361300D01*
X487453Y361298D01*
X487515Y361292D01*
X487577Y361282D01*
X487639Y361269D01*
X487699Y361251D01*
X487758Y361230D01*
X487816Y361205D01*
X487872Y361176D01*
X487926Y361144D01*
X487978Y361109D01*
X488027Y361071D01*
X488075Y361029D01*
X488119Y360985D01*
X488161Y360937D01*
X488199Y360888D01*
X488234Y360836D01*
X488266Y360782D01*
X488295Y360726D01*
X488320Y360668D01*
X488341Y360609D01*
X488359Y360549D01*
X488372Y360487D01*
X488382Y360425D01*
X488388Y360363D01*
X488390Y360300D01*
X488388Y360237D01*
X488382Y360175D01*
X488372Y360113D01*
X488359Y360051D01*
X488341Y359991D01*
X488320Y359932D01*
X488295Y359874D01*
X488266Y359818D01*
X488234Y359764D01*
X488199Y359712D01*
X488161Y359663D01*
X488119Y359615D01*
X488075Y359571D01*
X488027Y359529D01*
X487978Y359491D01*
X487926Y359456D01*
X487872Y359424D01*
X487816Y359395D01*
X487758Y359370D01*
X487699Y359349D01*
X487639Y359331D01*
X487577Y359318D01*
X487515Y359308D01*
X487453Y359302D01*
X487390Y359300D01*
X487327Y359302D01*
X487265Y359308D01*
X487203Y359318D01*
X487141Y359331D01*
X487081Y359349D01*
X487022Y359370D01*
X486964Y359395D01*
X486908Y359424D01*
X486854Y359456D01*
X486802Y359491D01*
X486753Y359529D01*
X486705Y359571D01*
X486661Y359615D01*
X486619Y359663D01*
X486581Y359712D01*
X486546Y359764D01*
X486514Y359818D01*
X486485Y359874D01*
X486460Y359932D01*
X486439Y359991D01*
X486421Y360051D01*
X486408Y360113D01*
X486398Y360175D01*
X486392Y360237D01*
X486390Y360300D01*
D12*
X482240Y380950D02*
X457560Y380950D01*
X457560Y355650D02*
X482240Y355650D01*
X457560Y355650D02*
X457560Y380950D01*
X482240Y380950D02*
X482240Y355650D01*
D14*
X477339Y345119D02*
X477339Y338332D01*
X477341Y338231D01*
X477347Y338130D01*
X477357Y338029D01*
X477370Y337929D01*
X477388Y337829D01*
X477409Y337730D01*
X477435Y337632D01*
X477464Y337535D01*
X477496Y337439D01*
X477533Y337345D01*
X477573Y337252D01*
X477617Y337160D01*
X477664Y337071D01*
X477715Y336983D01*
X477769Y336897D01*
X477826Y336814D01*
X477886Y336732D01*
X477950Y336654D01*
X478016Y336577D01*
X478086Y336504D01*
X478158Y336433D01*
X478233Y336365D01*
X478311Y336300D01*
X478391Y336238D01*
X478473Y336179D01*
X478558Y336123D01*
X478645Y336071D01*
X478733Y336022D01*
X478824Y335976D01*
X478916Y335935D01*
X479010Y335896D01*
X479105Y335862D01*
X479201Y335831D01*
X479299Y335804D01*
X479397Y335780D01*
X479497Y335761D01*
X479597Y335745D01*
X479697Y335733D01*
X479798Y335725D01*
X479899Y335721D01*
X480001Y335721D01*
X480102Y335725D01*
X480203Y335733D01*
X480303Y335745D01*
X480403Y335761D01*
X480503Y335780D01*
X480601Y335804D01*
X480699Y335831D01*
X480795Y335862D01*
X480890Y335896D01*
X480984Y335935D01*
X481076Y335976D01*
X481167Y336022D01*
X481255Y336071D01*
X481342Y336123D01*
X481427Y336179D01*
X481509Y336238D01*
X481589Y336300D01*
X481667Y336365D01*
X481742Y336433D01*
X481814Y336504D01*
X481884Y336577D01*
X481950Y336654D01*
X482014Y336732D01*
X482074Y336814D01*
X482131Y336897D01*
X482185Y336983D01*
X482236Y337071D01*
X482283Y337160D01*
X482327Y337252D01*
X482367Y337345D01*
X482404Y337439D01*
X482436Y337535D01*
X482465Y337632D01*
X482491Y337730D01*
X482512Y337829D01*
X482530Y337929D01*
X482543Y338029D01*
X482553Y338130D01*
X482559Y338231D01*
X482561Y338332D01*
X482560Y338332D02*
X482560Y345119D01*
X486788Y343031D02*
X489398Y345119D01*
X489398Y335721D01*
X486788Y335721D02*
X492009Y335721D01*
D12*
X484900Y461500D02*
X454900Y461500D01*
X484900Y461500D02*
X484900Y427500D01*
X454900Y427500D01*
X454900Y461500D01*
D15*
X449150Y459500D02*
X449152Y459554D01*
X449158Y459608D01*
X449168Y459661D01*
X449181Y459714D01*
X449198Y459765D01*
X449219Y459815D01*
X449244Y459863D01*
X449272Y459910D01*
X449303Y459954D01*
X449337Y459996D01*
X449374Y460035D01*
X449414Y460072D01*
X449457Y460105D01*
X449502Y460136D01*
X449549Y460163D01*
X449597Y460186D01*
X449648Y460206D01*
X449699Y460223D01*
X449752Y460235D01*
X449805Y460244D01*
X449859Y460249D01*
X449914Y460250D01*
X449968Y460247D01*
X450021Y460240D01*
X450074Y460229D01*
X450127Y460215D01*
X450178Y460197D01*
X450227Y460175D01*
X450275Y460150D01*
X450321Y460121D01*
X450365Y460089D01*
X450406Y460054D01*
X450444Y460016D01*
X450480Y459975D01*
X450513Y459932D01*
X450543Y459887D01*
X450569Y459839D01*
X450592Y459790D01*
X450611Y459739D01*
X450626Y459688D01*
X450638Y459635D01*
X450646Y459581D01*
X450650Y459527D01*
X450650Y459473D01*
X450646Y459419D01*
X450638Y459365D01*
X450626Y459312D01*
X450611Y459261D01*
X450592Y459210D01*
X450569Y459161D01*
X450543Y459113D01*
X450513Y459068D01*
X450480Y459025D01*
X450444Y458984D01*
X450406Y458946D01*
X450365Y458911D01*
X450321Y458879D01*
X450275Y458850D01*
X450227Y458825D01*
X450178Y458803D01*
X450127Y458785D01*
X450074Y458771D01*
X450021Y458760D01*
X449968Y458753D01*
X449914Y458750D01*
X449859Y458751D01*
X449805Y458756D01*
X449752Y458765D01*
X449699Y458777D01*
X449648Y458794D01*
X449597Y458814D01*
X449549Y458837D01*
X449502Y458864D01*
X449457Y458895D01*
X449414Y458928D01*
X449374Y458965D01*
X449337Y459004D01*
X449303Y459046D01*
X449272Y459090D01*
X449244Y459137D01*
X449219Y459185D01*
X449198Y459235D01*
X449181Y459286D01*
X449168Y459339D01*
X449158Y459392D01*
X449152Y459446D01*
X449150Y459500D01*
D14*
X452759Y466956D02*
X452759Y472283D01*
X452759Y466956D02*
X452761Y466867D01*
X452767Y466777D01*
X452777Y466689D01*
X452790Y466600D01*
X452808Y466513D01*
X452829Y466426D01*
X452854Y466340D01*
X452883Y466255D01*
X452915Y466172D01*
X452951Y466090D01*
X452991Y466010D01*
X453034Y465932D01*
X453080Y465855D01*
X453130Y465781D01*
X453182Y465709D01*
X453238Y465639D01*
X453297Y465572D01*
X453359Y465507D01*
X453424Y465445D01*
X453491Y465386D01*
X453561Y465330D01*
X453633Y465278D01*
X453707Y465228D01*
X453784Y465182D01*
X453862Y465139D01*
X453942Y465099D01*
X454024Y465063D01*
X454107Y465031D01*
X454192Y465002D01*
X454278Y464977D01*
X454365Y464956D01*
X454452Y464938D01*
X454541Y464925D01*
X454629Y464915D01*
X454719Y464909D01*
X454808Y464907D01*
X454897Y464909D01*
X454987Y464915D01*
X455075Y464925D01*
X455164Y464938D01*
X455251Y464956D01*
X455338Y464977D01*
X455424Y465002D01*
X455509Y465031D01*
X455592Y465063D01*
X455674Y465099D01*
X455754Y465139D01*
X455833Y465182D01*
X455909Y465228D01*
X455983Y465278D01*
X456055Y465330D01*
X456125Y465386D01*
X456192Y465445D01*
X456257Y465507D01*
X456319Y465572D01*
X456378Y465639D01*
X456434Y465709D01*
X456486Y465781D01*
X456536Y465855D01*
X456582Y465932D01*
X456625Y466010D01*
X456665Y466090D01*
X456701Y466172D01*
X456733Y466255D01*
X456762Y466340D01*
X456787Y466426D01*
X456808Y466513D01*
X456826Y466600D01*
X456839Y466689D01*
X456849Y466777D01*
X456855Y466867D01*
X456857Y466956D01*
X456857Y472283D01*
X460327Y464907D02*
X462376Y464907D01*
X462465Y464909D01*
X462555Y464915D01*
X462643Y464925D01*
X462732Y464938D01*
X462819Y464956D01*
X462906Y464977D01*
X462992Y465002D01*
X463077Y465031D01*
X463160Y465063D01*
X463242Y465099D01*
X463322Y465139D01*
X463401Y465182D01*
X463477Y465228D01*
X463551Y465278D01*
X463623Y465330D01*
X463693Y465386D01*
X463760Y465445D01*
X463825Y465507D01*
X463887Y465572D01*
X463946Y465639D01*
X464002Y465709D01*
X464054Y465781D01*
X464104Y465855D01*
X464150Y465932D01*
X464193Y466010D01*
X464233Y466090D01*
X464269Y466172D01*
X464301Y466255D01*
X464330Y466340D01*
X464355Y466426D01*
X464376Y466513D01*
X464394Y466600D01*
X464407Y466689D01*
X464417Y466777D01*
X464423Y466867D01*
X464425Y466956D01*
X464423Y467045D01*
X464417Y467135D01*
X464407Y467223D01*
X464394Y467312D01*
X464376Y467399D01*
X464355Y467486D01*
X464330Y467572D01*
X464301Y467657D01*
X464269Y467740D01*
X464233Y467822D01*
X464193Y467902D01*
X464150Y467981D01*
X464104Y468057D01*
X464054Y468131D01*
X464002Y468203D01*
X463946Y468273D01*
X463887Y468340D01*
X463825Y468405D01*
X463760Y468467D01*
X463693Y468526D01*
X463623Y468582D01*
X463551Y468634D01*
X463477Y468684D01*
X463401Y468730D01*
X463322Y468773D01*
X463242Y468813D01*
X463160Y468849D01*
X463077Y468881D01*
X462992Y468910D01*
X462906Y468935D01*
X462819Y468956D01*
X462732Y468974D01*
X462643Y468987D01*
X462555Y468997D01*
X462465Y469003D01*
X462376Y469005D01*
X462786Y472283D02*
X460327Y472283D01*
X462786Y472283D02*
X462865Y472281D01*
X462944Y472275D01*
X463023Y472266D01*
X463101Y472252D01*
X463178Y472235D01*
X463255Y472215D01*
X463330Y472190D01*
X463404Y472162D01*
X463477Y472130D01*
X463548Y472095D01*
X463617Y472057D01*
X463684Y472015D01*
X463749Y471970D01*
X463812Y471922D01*
X463873Y471871D01*
X463931Y471817D01*
X463986Y471760D01*
X464039Y471701D01*
X464088Y471639D01*
X464135Y471575D01*
X464178Y471509D01*
X464218Y471441D01*
X464255Y471370D01*
X464289Y471299D01*
X464318Y471225D01*
X464345Y471150D01*
X464367Y471075D01*
X464386Y470998D01*
X464402Y470920D01*
X464413Y470842D01*
X464421Y470763D01*
X464425Y470684D01*
X464425Y470604D01*
X464421Y470525D01*
X464413Y470446D01*
X464402Y470368D01*
X464386Y470290D01*
X464367Y470213D01*
X464345Y470138D01*
X464318Y470063D01*
X464289Y469989D01*
X464255Y469918D01*
X464218Y469847D01*
X464178Y469779D01*
X464135Y469713D01*
X464088Y469649D01*
X464039Y469587D01*
X463986Y469528D01*
X463931Y469471D01*
X463873Y469417D01*
X463812Y469366D01*
X463749Y469318D01*
X463684Y469273D01*
X463617Y469231D01*
X463548Y469193D01*
X463477Y469158D01*
X463404Y469126D01*
X463330Y469098D01*
X463255Y469073D01*
X463178Y469053D01*
X463101Y469036D01*
X463023Y469022D01*
X462944Y469013D01*
X462865Y469007D01*
X462786Y469005D01*
X461147Y469005D01*
D10*
X563880Y388620D02*
X566420Y388620D01*
X563880Y388620D02*
X563880Y386080D01*
X579120Y386080D02*
X579120Y388620D01*
X576580Y388620D01*
X579120Y375920D02*
X579120Y373380D01*
X576580Y373380D01*
X566420Y373380D02*
X563880Y373380D01*
X563880Y375920D01*
D12*
X564515Y391795D02*
X564515Y403225D01*
X567690Y403225D01*
X567801Y403223D01*
X567911Y403217D01*
X568022Y403208D01*
X568132Y403194D01*
X568241Y403177D01*
X568350Y403156D01*
X568458Y403131D01*
X568565Y403102D01*
X568671Y403070D01*
X568776Y403034D01*
X568879Y402994D01*
X568981Y402951D01*
X569082Y402904D01*
X569181Y402853D01*
X569278Y402800D01*
X569372Y402743D01*
X569465Y402682D01*
X569556Y402619D01*
X569645Y402552D01*
X569731Y402482D01*
X569814Y402409D01*
X569896Y402334D01*
X569974Y402256D01*
X570049Y402174D01*
X570122Y402091D01*
X570192Y402005D01*
X570259Y401916D01*
X570322Y401825D01*
X570383Y401732D01*
X570440Y401637D01*
X570493Y401541D01*
X570544Y401442D01*
X570591Y401341D01*
X570634Y401239D01*
X570674Y401136D01*
X570710Y401031D01*
X570742Y400925D01*
X570771Y400818D01*
X570796Y400710D01*
X570817Y400601D01*
X570834Y400492D01*
X570848Y400382D01*
X570857Y400271D01*
X570863Y400161D01*
X570865Y400050D01*
X570863Y399939D01*
X570857Y399829D01*
X570848Y399718D01*
X570834Y399608D01*
X570817Y399499D01*
X570796Y399390D01*
X570771Y399282D01*
X570742Y399175D01*
X570710Y399069D01*
X570674Y398964D01*
X570634Y398861D01*
X570591Y398759D01*
X570544Y398658D01*
X570493Y398559D01*
X570440Y398462D01*
X570383Y398368D01*
X570322Y398275D01*
X570259Y398184D01*
X570192Y398095D01*
X570122Y398009D01*
X570049Y397926D01*
X569974Y397844D01*
X569896Y397766D01*
X569814Y397691D01*
X569731Y397618D01*
X569645Y397548D01*
X569556Y397481D01*
X569465Y397418D01*
X569372Y397357D01*
X569278Y397300D01*
X569181Y397247D01*
X569082Y397196D01*
X568981Y397149D01*
X568879Y397106D01*
X568776Y397066D01*
X568671Y397030D01*
X568565Y396998D01*
X568458Y396969D01*
X568350Y396944D01*
X568241Y396923D01*
X568132Y396906D01*
X568022Y396892D01*
X567911Y396883D01*
X567801Y396877D01*
X567690Y396875D01*
X564515Y396875D01*
X574739Y391795D02*
X578549Y403225D01*
X582359Y391795D01*
X581406Y394653D02*
X575691Y394653D01*
X587185Y391795D02*
X587185Y403225D01*
X590360Y403225D01*
X590471Y403223D01*
X590581Y403217D01*
X590692Y403208D01*
X590802Y403194D01*
X590911Y403177D01*
X591020Y403156D01*
X591128Y403131D01*
X591235Y403102D01*
X591341Y403070D01*
X591446Y403034D01*
X591549Y402994D01*
X591651Y402951D01*
X591752Y402904D01*
X591851Y402853D01*
X591948Y402800D01*
X592042Y402743D01*
X592135Y402682D01*
X592226Y402619D01*
X592315Y402552D01*
X592401Y402482D01*
X592484Y402409D01*
X592566Y402334D01*
X592644Y402256D01*
X592719Y402174D01*
X592792Y402091D01*
X592862Y402005D01*
X592929Y401916D01*
X592992Y401825D01*
X593053Y401732D01*
X593110Y401638D01*
X593163Y401541D01*
X593214Y401442D01*
X593261Y401341D01*
X593304Y401239D01*
X593344Y401136D01*
X593380Y401031D01*
X593412Y400925D01*
X593441Y400818D01*
X593466Y400710D01*
X593487Y400601D01*
X593504Y400492D01*
X593518Y400382D01*
X593527Y400271D01*
X593533Y400161D01*
X593535Y400050D01*
X593535Y394970D01*
X593533Y394859D01*
X593527Y394749D01*
X593518Y394638D01*
X593504Y394528D01*
X593487Y394419D01*
X593466Y394310D01*
X593441Y394202D01*
X593412Y394095D01*
X593380Y393989D01*
X593344Y393884D01*
X593304Y393781D01*
X593261Y393679D01*
X593214Y393578D01*
X593163Y393479D01*
X593110Y393382D01*
X593053Y393288D01*
X592992Y393195D01*
X592929Y393104D01*
X592862Y393015D01*
X592792Y392929D01*
X592719Y392846D01*
X592644Y392764D01*
X592566Y392686D01*
X592484Y392611D01*
X592401Y392538D01*
X592315Y392468D01*
X592226Y392401D01*
X592135Y392338D01*
X592042Y392277D01*
X591948Y392220D01*
X591851Y392167D01*
X591752Y392116D01*
X591651Y392069D01*
X591549Y392026D01*
X591446Y391986D01*
X591341Y391950D01*
X591235Y391918D01*
X591128Y391889D01*
X591020Y391864D01*
X590911Y391843D01*
X590802Y391826D01*
X590692Y391812D01*
X590581Y391803D01*
X590471Y391797D01*
X590360Y391795D01*
X587185Y391795D01*
X598996Y391795D02*
X602171Y391795D01*
X602282Y391797D01*
X602392Y391803D01*
X602503Y391812D01*
X602613Y391826D01*
X602722Y391843D01*
X602831Y391864D01*
X602939Y391889D01*
X603046Y391918D01*
X603152Y391950D01*
X603257Y391986D01*
X603360Y392026D01*
X603462Y392069D01*
X603563Y392116D01*
X603662Y392167D01*
X603759Y392220D01*
X603853Y392277D01*
X603946Y392338D01*
X604037Y392401D01*
X604126Y392468D01*
X604212Y392538D01*
X604295Y392611D01*
X604377Y392686D01*
X604455Y392764D01*
X604530Y392846D01*
X604603Y392929D01*
X604673Y393015D01*
X604740Y393104D01*
X604803Y393195D01*
X604864Y393288D01*
X604921Y393382D01*
X604974Y393479D01*
X605025Y393578D01*
X605072Y393679D01*
X605115Y393781D01*
X605155Y393884D01*
X605191Y393989D01*
X605223Y394095D01*
X605252Y394202D01*
X605277Y394310D01*
X605298Y394419D01*
X605315Y394528D01*
X605329Y394638D01*
X605338Y394749D01*
X605344Y394859D01*
X605346Y394970D01*
X605344Y395081D01*
X605338Y395191D01*
X605329Y395302D01*
X605315Y395412D01*
X605298Y395521D01*
X605277Y395630D01*
X605252Y395738D01*
X605223Y395845D01*
X605191Y395951D01*
X605155Y396056D01*
X605115Y396159D01*
X605072Y396261D01*
X605025Y396362D01*
X604974Y396461D01*
X604921Y396557D01*
X604864Y396652D01*
X604803Y396745D01*
X604740Y396836D01*
X604673Y396925D01*
X604603Y397011D01*
X604530Y397094D01*
X604455Y397176D01*
X604377Y397254D01*
X604295Y397329D01*
X604212Y397402D01*
X604126Y397472D01*
X604037Y397539D01*
X603946Y397602D01*
X603853Y397663D01*
X603759Y397720D01*
X603662Y397773D01*
X603563Y397824D01*
X603462Y397871D01*
X603360Y397914D01*
X603257Y397954D01*
X603152Y397990D01*
X603046Y398022D01*
X602939Y398051D01*
X602831Y398076D01*
X602722Y398097D01*
X602613Y398114D01*
X602503Y398128D01*
X602392Y398137D01*
X602282Y398143D01*
X602171Y398145D01*
X602806Y403225D02*
X598996Y403225D01*
X602806Y403225D02*
X602906Y403223D01*
X603005Y403217D01*
X603105Y403207D01*
X603203Y403194D01*
X603302Y403176D01*
X603399Y403155D01*
X603495Y403130D01*
X603591Y403101D01*
X603685Y403068D01*
X603778Y403032D01*
X603869Y402992D01*
X603959Y402948D01*
X604047Y402901D01*
X604133Y402851D01*
X604217Y402797D01*
X604299Y402740D01*
X604378Y402680D01*
X604456Y402616D01*
X604530Y402550D01*
X604602Y402481D01*
X604671Y402409D01*
X604737Y402335D01*
X604801Y402257D01*
X604861Y402178D01*
X604918Y402096D01*
X604972Y402012D01*
X605022Y401926D01*
X605069Y401838D01*
X605113Y401748D01*
X605153Y401657D01*
X605189Y401564D01*
X605222Y401470D01*
X605251Y401374D01*
X605276Y401278D01*
X605297Y401181D01*
X605315Y401082D01*
X605328Y400984D01*
X605338Y400884D01*
X605344Y400785D01*
X605346Y400685D01*
X605344Y400585D01*
X605338Y400486D01*
X605328Y400386D01*
X605315Y400288D01*
X605297Y400189D01*
X605276Y400092D01*
X605251Y399996D01*
X605222Y399900D01*
X605189Y399806D01*
X605153Y399713D01*
X605113Y399622D01*
X605069Y399532D01*
X605022Y399444D01*
X604972Y399358D01*
X604918Y399274D01*
X604861Y399192D01*
X604801Y399113D01*
X604737Y399035D01*
X604671Y398961D01*
X604602Y398889D01*
X604530Y398820D01*
X604456Y398754D01*
X604378Y398690D01*
X604299Y398630D01*
X604217Y398573D01*
X604133Y398519D01*
X604047Y398469D01*
X603959Y398422D01*
X603869Y398378D01*
X603778Y398338D01*
X603685Y398302D01*
X603591Y398269D01*
X603495Y398240D01*
X603399Y398215D01*
X603302Y398194D01*
X603203Y398176D01*
X603105Y398163D01*
X603005Y398153D01*
X602906Y398147D01*
X602806Y398145D01*
X600266Y398145D01*
D10*
X566420Y363220D02*
X563880Y363220D01*
X563880Y360680D01*
X579120Y360680D02*
X579120Y363220D01*
X576580Y363220D01*
X579120Y350520D02*
X579120Y347980D01*
X576580Y347980D01*
X566420Y347980D02*
X563880Y347980D01*
X563880Y350520D01*
D12*
X564515Y366395D02*
X564515Y377825D01*
X567690Y377825D01*
X567801Y377823D01*
X567911Y377817D01*
X568022Y377808D01*
X568132Y377794D01*
X568241Y377777D01*
X568350Y377756D01*
X568458Y377731D01*
X568565Y377702D01*
X568671Y377670D01*
X568776Y377634D01*
X568879Y377594D01*
X568981Y377551D01*
X569082Y377504D01*
X569181Y377453D01*
X569278Y377400D01*
X569372Y377343D01*
X569465Y377282D01*
X569556Y377219D01*
X569645Y377152D01*
X569731Y377082D01*
X569814Y377009D01*
X569896Y376934D01*
X569974Y376856D01*
X570049Y376774D01*
X570122Y376691D01*
X570192Y376605D01*
X570259Y376516D01*
X570322Y376425D01*
X570383Y376332D01*
X570440Y376237D01*
X570493Y376141D01*
X570544Y376042D01*
X570591Y375941D01*
X570634Y375839D01*
X570674Y375736D01*
X570710Y375631D01*
X570742Y375525D01*
X570771Y375418D01*
X570796Y375310D01*
X570817Y375201D01*
X570834Y375092D01*
X570848Y374982D01*
X570857Y374871D01*
X570863Y374761D01*
X570865Y374650D01*
X570863Y374539D01*
X570857Y374429D01*
X570848Y374318D01*
X570834Y374208D01*
X570817Y374099D01*
X570796Y373990D01*
X570771Y373882D01*
X570742Y373775D01*
X570710Y373669D01*
X570674Y373564D01*
X570634Y373461D01*
X570591Y373359D01*
X570544Y373258D01*
X570493Y373159D01*
X570440Y373062D01*
X570383Y372968D01*
X570322Y372875D01*
X570259Y372784D01*
X570192Y372695D01*
X570122Y372609D01*
X570049Y372526D01*
X569974Y372444D01*
X569896Y372366D01*
X569814Y372291D01*
X569731Y372218D01*
X569645Y372148D01*
X569556Y372081D01*
X569465Y372018D01*
X569372Y371957D01*
X569278Y371900D01*
X569181Y371847D01*
X569082Y371796D01*
X568981Y371749D01*
X568879Y371706D01*
X568776Y371666D01*
X568671Y371630D01*
X568565Y371598D01*
X568458Y371569D01*
X568350Y371544D01*
X568241Y371523D01*
X568132Y371506D01*
X568022Y371492D01*
X567911Y371483D01*
X567801Y371477D01*
X567690Y371475D01*
X564515Y371475D01*
X574739Y366395D02*
X578549Y377825D01*
X582359Y366395D01*
X581406Y369253D02*
X575691Y369253D01*
X587185Y366395D02*
X587185Y377825D01*
X590360Y377825D01*
X590471Y377823D01*
X590581Y377817D01*
X590692Y377808D01*
X590802Y377794D01*
X590911Y377777D01*
X591020Y377756D01*
X591128Y377731D01*
X591235Y377702D01*
X591341Y377670D01*
X591446Y377634D01*
X591549Y377594D01*
X591651Y377551D01*
X591752Y377504D01*
X591851Y377453D01*
X591948Y377400D01*
X592042Y377343D01*
X592135Y377282D01*
X592226Y377219D01*
X592315Y377152D01*
X592401Y377082D01*
X592484Y377009D01*
X592566Y376934D01*
X592644Y376856D01*
X592719Y376774D01*
X592792Y376691D01*
X592862Y376605D01*
X592929Y376516D01*
X592992Y376425D01*
X593053Y376332D01*
X593110Y376238D01*
X593163Y376141D01*
X593214Y376042D01*
X593261Y375941D01*
X593304Y375839D01*
X593344Y375736D01*
X593380Y375631D01*
X593412Y375525D01*
X593441Y375418D01*
X593466Y375310D01*
X593487Y375201D01*
X593504Y375092D01*
X593518Y374982D01*
X593527Y374871D01*
X593533Y374761D01*
X593535Y374650D01*
X593535Y369570D01*
X593533Y369459D01*
X593527Y369349D01*
X593518Y369238D01*
X593504Y369128D01*
X593487Y369019D01*
X593466Y368910D01*
X593441Y368802D01*
X593412Y368695D01*
X593380Y368589D01*
X593344Y368484D01*
X593304Y368381D01*
X593261Y368279D01*
X593214Y368178D01*
X593163Y368079D01*
X593110Y367982D01*
X593053Y367888D01*
X592992Y367795D01*
X592929Y367704D01*
X592862Y367615D01*
X592792Y367529D01*
X592719Y367446D01*
X592644Y367364D01*
X592566Y367286D01*
X592484Y367211D01*
X592401Y367138D01*
X592315Y367068D01*
X592226Y367001D01*
X592135Y366938D01*
X592042Y366877D01*
X591948Y366820D01*
X591851Y366767D01*
X591752Y366716D01*
X591651Y366669D01*
X591549Y366626D01*
X591446Y366586D01*
X591341Y366550D01*
X591235Y366518D01*
X591128Y366489D01*
X591020Y366464D01*
X590911Y366443D01*
X590802Y366426D01*
X590692Y366412D01*
X590581Y366403D01*
X590471Y366397D01*
X590360Y366395D01*
X587185Y366395D01*
X598996Y368935D02*
X601536Y377825D01*
X598996Y368935D02*
X605346Y368935D01*
X603441Y371475D02*
X603441Y366395D01*
D10*
X566420Y325120D02*
X563880Y325120D01*
X563880Y322580D01*
X579120Y322580D02*
X579120Y325120D01*
X576580Y325120D01*
X579120Y312420D02*
X579120Y309880D01*
X576580Y309880D01*
X566420Y309880D02*
X563880Y309880D01*
X563880Y312420D01*
D12*
X564515Y328295D02*
X564515Y339725D01*
X567690Y339725D01*
X567801Y339723D01*
X567911Y339717D01*
X568022Y339708D01*
X568132Y339694D01*
X568241Y339677D01*
X568350Y339656D01*
X568458Y339631D01*
X568565Y339602D01*
X568671Y339570D01*
X568776Y339534D01*
X568879Y339494D01*
X568981Y339451D01*
X569082Y339404D01*
X569181Y339353D01*
X569278Y339300D01*
X569372Y339243D01*
X569465Y339182D01*
X569556Y339119D01*
X569645Y339052D01*
X569731Y338982D01*
X569814Y338909D01*
X569896Y338834D01*
X569974Y338756D01*
X570049Y338674D01*
X570122Y338591D01*
X570192Y338505D01*
X570259Y338416D01*
X570322Y338325D01*
X570383Y338232D01*
X570440Y338137D01*
X570493Y338041D01*
X570544Y337942D01*
X570591Y337841D01*
X570634Y337739D01*
X570674Y337636D01*
X570710Y337531D01*
X570742Y337425D01*
X570771Y337318D01*
X570796Y337210D01*
X570817Y337101D01*
X570834Y336992D01*
X570848Y336882D01*
X570857Y336771D01*
X570863Y336661D01*
X570865Y336550D01*
X570863Y336439D01*
X570857Y336329D01*
X570848Y336218D01*
X570834Y336108D01*
X570817Y335999D01*
X570796Y335890D01*
X570771Y335782D01*
X570742Y335675D01*
X570710Y335569D01*
X570674Y335464D01*
X570634Y335361D01*
X570591Y335259D01*
X570544Y335158D01*
X570493Y335059D01*
X570440Y334962D01*
X570383Y334868D01*
X570322Y334775D01*
X570259Y334684D01*
X570192Y334595D01*
X570122Y334509D01*
X570049Y334426D01*
X569974Y334344D01*
X569896Y334266D01*
X569814Y334191D01*
X569731Y334118D01*
X569645Y334048D01*
X569556Y333981D01*
X569465Y333918D01*
X569372Y333857D01*
X569278Y333800D01*
X569181Y333747D01*
X569082Y333696D01*
X568981Y333649D01*
X568879Y333606D01*
X568776Y333566D01*
X568671Y333530D01*
X568565Y333498D01*
X568458Y333469D01*
X568350Y333444D01*
X568241Y333423D01*
X568132Y333406D01*
X568022Y333392D01*
X567911Y333383D01*
X567801Y333377D01*
X567690Y333375D01*
X564515Y333375D01*
X574739Y328295D02*
X578549Y339725D01*
X582359Y328295D01*
X581406Y331153D02*
X575691Y331153D01*
X587185Y328295D02*
X587185Y339725D01*
X590360Y339725D01*
X590471Y339723D01*
X590581Y339717D01*
X590692Y339708D01*
X590802Y339694D01*
X590911Y339677D01*
X591020Y339656D01*
X591128Y339631D01*
X591235Y339602D01*
X591341Y339570D01*
X591446Y339534D01*
X591549Y339494D01*
X591651Y339451D01*
X591752Y339404D01*
X591851Y339353D01*
X591948Y339300D01*
X592042Y339243D01*
X592135Y339182D01*
X592226Y339119D01*
X592315Y339052D01*
X592401Y338982D01*
X592484Y338909D01*
X592566Y338834D01*
X592644Y338756D01*
X592719Y338674D01*
X592792Y338591D01*
X592862Y338505D01*
X592929Y338416D01*
X592992Y338325D01*
X593053Y338232D01*
X593110Y338138D01*
X593163Y338041D01*
X593214Y337942D01*
X593261Y337841D01*
X593304Y337739D01*
X593344Y337636D01*
X593380Y337531D01*
X593412Y337425D01*
X593441Y337318D01*
X593466Y337210D01*
X593487Y337101D01*
X593504Y336992D01*
X593518Y336882D01*
X593527Y336771D01*
X593533Y336661D01*
X593535Y336550D01*
X593535Y331470D01*
X593533Y331359D01*
X593527Y331249D01*
X593518Y331138D01*
X593504Y331028D01*
X593487Y330919D01*
X593466Y330810D01*
X593441Y330702D01*
X593412Y330595D01*
X593380Y330489D01*
X593344Y330384D01*
X593304Y330281D01*
X593261Y330179D01*
X593214Y330078D01*
X593163Y329979D01*
X593110Y329882D01*
X593053Y329788D01*
X592992Y329695D01*
X592929Y329604D01*
X592862Y329515D01*
X592792Y329429D01*
X592719Y329346D01*
X592644Y329264D01*
X592566Y329186D01*
X592484Y329111D01*
X592401Y329038D01*
X592315Y328968D01*
X592226Y328901D01*
X592135Y328838D01*
X592042Y328777D01*
X591948Y328720D01*
X591851Y328667D01*
X591752Y328616D01*
X591651Y328569D01*
X591549Y328526D01*
X591446Y328486D01*
X591341Y328450D01*
X591235Y328418D01*
X591128Y328389D01*
X591020Y328364D01*
X590911Y328343D01*
X590802Y328326D01*
X590692Y328312D01*
X590581Y328303D01*
X590471Y328297D01*
X590360Y328295D01*
X587185Y328295D01*
X598996Y328295D02*
X602806Y328295D01*
X602906Y328297D01*
X603005Y328303D01*
X603105Y328313D01*
X603203Y328326D01*
X603302Y328344D01*
X603399Y328365D01*
X603495Y328390D01*
X603591Y328419D01*
X603685Y328452D01*
X603778Y328488D01*
X603869Y328528D01*
X603959Y328572D01*
X604047Y328619D01*
X604133Y328669D01*
X604217Y328723D01*
X604299Y328780D01*
X604378Y328840D01*
X604456Y328904D01*
X604530Y328970D01*
X604602Y329039D01*
X604671Y329111D01*
X604737Y329185D01*
X604801Y329263D01*
X604861Y329342D01*
X604918Y329424D01*
X604972Y329508D01*
X605022Y329594D01*
X605069Y329682D01*
X605113Y329772D01*
X605153Y329863D01*
X605189Y329956D01*
X605222Y330050D01*
X605251Y330146D01*
X605276Y330242D01*
X605297Y330339D01*
X605315Y330438D01*
X605328Y330536D01*
X605338Y330636D01*
X605344Y330735D01*
X605346Y330835D01*
X605346Y332105D01*
X605344Y332205D01*
X605338Y332304D01*
X605328Y332404D01*
X605315Y332502D01*
X605297Y332601D01*
X605276Y332698D01*
X605251Y332794D01*
X605222Y332890D01*
X605189Y332984D01*
X605153Y333077D01*
X605113Y333168D01*
X605069Y333258D01*
X605022Y333346D01*
X604972Y333432D01*
X604918Y333516D01*
X604861Y333598D01*
X604801Y333677D01*
X604737Y333755D01*
X604671Y333829D01*
X604602Y333901D01*
X604530Y333970D01*
X604456Y334036D01*
X604378Y334100D01*
X604299Y334160D01*
X604217Y334217D01*
X604133Y334271D01*
X604047Y334321D01*
X603959Y334368D01*
X603869Y334412D01*
X603778Y334452D01*
X603685Y334488D01*
X603591Y334521D01*
X603495Y334550D01*
X603399Y334575D01*
X603302Y334596D01*
X603203Y334614D01*
X603105Y334627D01*
X603005Y334637D01*
X602906Y334643D01*
X602806Y334645D01*
X598996Y334645D01*
X598996Y339725D01*
X605346Y339725D01*
D10*
X566420Y287020D02*
X563880Y287020D01*
X563880Y284480D01*
X579120Y284480D02*
X579120Y287020D01*
X576580Y287020D01*
X579120Y274320D02*
X579120Y271780D01*
X576580Y271780D01*
X566420Y271780D02*
X563880Y271780D01*
X563880Y274320D01*
D12*
X564515Y290195D02*
X564515Y301625D01*
X567690Y301625D01*
X567801Y301623D01*
X567911Y301617D01*
X568022Y301608D01*
X568132Y301594D01*
X568241Y301577D01*
X568350Y301556D01*
X568458Y301531D01*
X568565Y301502D01*
X568671Y301470D01*
X568776Y301434D01*
X568879Y301394D01*
X568981Y301351D01*
X569082Y301304D01*
X569181Y301253D01*
X569278Y301200D01*
X569372Y301143D01*
X569465Y301082D01*
X569556Y301019D01*
X569645Y300952D01*
X569731Y300882D01*
X569814Y300809D01*
X569896Y300734D01*
X569974Y300656D01*
X570049Y300574D01*
X570122Y300491D01*
X570192Y300405D01*
X570259Y300316D01*
X570322Y300225D01*
X570383Y300132D01*
X570440Y300037D01*
X570493Y299941D01*
X570544Y299842D01*
X570591Y299741D01*
X570634Y299639D01*
X570674Y299536D01*
X570710Y299431D01*
X570742Y299325D01*
X570771Y299218D01*
X570796Y299110D01*
X570817Y299001D01*
X570834Y298892D01*
X570848Y298782D01*
X570857Y298671D01*
X570863Y298561D01*
X570865Y298450D01*
X570863Y298339D01*
X570857Y298229D01*
X570848Y298118D01*
X570834Y298008D01*
X570817Y297899D01*
X570796Y297790D01*
X570771Y297682D01*
X570742Y297575D01*
X570710Y297469D01*
X570674Y297364D01*
X570634Y297261D01*
X570591Y297159D01*
X570544Y297058D01*
X570493Y296959D01*
X570440Y296862D01*
X570383Y296768D01*
X570322Y296675D01*
X570259Y296584D01*
X570192Y296495D01*
X570122Y296409D01*
X570049Y296326D01*
X569974Y296244D01*
X569896Y296166D01*
X569814Y296091D01*
X569731Y296018D01*
X569645Y295948D01*
X569556Y295881D01*
X569465Y295818D01*
X569372Y295757D01*
X569278Y295700D01*
X569181Y295647D01*
X569082Y295596D01*
X568981Y295549D01*
X568879Y295506D01*
X568776Y295466D01*
X568671Y295430D01*
X568565Y295398D01*
X568458Y295369D01*
X568350Y295344D01*
X568241Y295323D01*
X568132Y295306D01*
X568022Y295292D01*
X567911Y295283D01*
X567801Y295277D01*
X567690Y295275D01*
X564515Y295275D01*
X574739Y290195D02*
X578549Y301625D01*
X582359Y290195D01*
X581406Y293053D02*
X575691Y293053D01*
X587185Y290195D02*
X587185Y301625D01*
X590360Y301625D01*
X590471Y301623D01*
X590581Y301617D01*
X590692Y301608D01*
X590802Y301594D01*
X590911Y301577D01*
X591020Y301556D01*
X591128Y301531D01*
X591235Y301502D01*
X591341Y301470D01*
X591446Y301434D01*
X591549Y301394D01*
X591651Y301351D01*
X591752Y301304D01*
X591851Y301253D01*
X591948Y301200D01*
X592042Y301143D01*
X592135Y301082D01*
X592226Y301019D01*
X592315Y300952D01*
X592401Y300882D01*
X592484Y300809D01*
X592566Y300734D01*
X592644Y300656D01*
X592719Y300574D01*
X592792Y300491D01*
X592862Y300405D01*
X592929Y300316D01*
X592992Y300225D01*
X593053Y300132D01*
X593110Y300038D01*
X593163Y299941D01*
X593214Y299842D01*
X593261Y299741D01*
X593304Y299639D01*
X593344Y299536D01*
X593380Y299431D01*
X593412Y299325D01*
X593441Y299218D01*
X593466Y299110D01*
X593487Y299001D01*
X593504Y298892D01*
X593518Y298782D01*
X593527Y298671D01*
X593533Y298561D01*
X593535Y298450D01*
X593535Y293370D01*
X593533Y293259D01*
X593527Y293149D01*
X593518Y293038D01*
X593504Y292928D01*
X593487Y292819D01*
X593466Y292710D01*
X593441Y292602D01*
X593412Y292495D01*
X593380Y292389D01*
X593344Y292284D01*
X593304Y292181D01*
X593261Y292079D01*
X593214Y291978D01*
X593163Y291879D01*
X593110Y291782D01*
X593053Y291688D01*
X592992Y291595D01*
X592929Y291504D01*
X592862Y291415D01*
X592792Y291329D01*
X592719Y291246D01*
X592644Y291164D01*
X592566Y291086D01*
X592484Y291011D01*
X592401Y290938D01*
X592315Y290868D01*
X592226Y290801D01*
X592135Y290738D01*
X592042Y290677D01*
X591948Y290620D01*
X591851Y290567D01*
X591752Y290516D01*
X591651Y290469D01*
X591549Y290426D01*
X591446Y290386D01*
X591341Y290350D01*
X591235Y290318D01*
X591128Y290289D01*
X591020Y290264D01*
X590911Y290243D01*
X590802Y290226D01*
X590692Y290212D01*
X590581Y290203D01*
X590471Y290197D01*
X590360Y290195D01*
X587185Y290195D01*
X598996Y296545D02*
X602806Y296545D01*
X602906Y296543D01*
X603005Y296537D01*
X603105Y296527D01*
X603203Y296514D01*
X603302Y296496D01*
X603399Y296475D01*
X603495Y296450D01*
X603591Y296421D01*
X603685Y296388D01*
X603778Y296352D01*
X603869Y296312D01*
X603959Y296268D01*
X604047Y296221D01*
X604133Y296171D01*
X604217Y296117D01*
X604299Y296060D01*
X604378Y296000D01*
X604456Y295936D01*
X604530Y295870D01*
X604602Y295801D01*
X604671Y295729D01*
X604737Y295655D01*
X604801Y295577D01*
X604861Y295498D01*
X604918Y295416D01*
X604972Y295332D01*
X605022Y295246D01*
X605069Y295158D01*
X605113Y295068D01*
X605153Y294977D01*
X605189Y294884D01*
X605222Y294790D01*
X605251Y294694D01*
X605276Y294598D01*
X605297Y294501D01*
X605315Y294402D01*
X605328Y294304D01*
X605338Y294204D01*
X605344Y294105D01*
X605346Y294005D01*
X605346Y293370D01*
X605344Y293259D01*
X605338Y293149D01*
X605329Y293038D01*
X605315Y292928D01*
X605298Y292819D01*
X605277Y292710D01*
X605252Y292602D01*
X605223Y292495D01*
X605191Y292389D01*
X605155Y292284D01*
X605115Y292181D01*
X605072Y292079D01*
X605025Y291978D01*
X604974Y291879D01*
X604921Y291782D01*
X604864Y291688D01*
X604803Y291595D01*
X604740Y291504D01*
X604673Y291415D01*
X604603Y291329D01*
X604530Y291246D01*
X604455Y291164D01*
X604377Y291086D01*
X604295Y291011D01*
X604212Y290938D01*
X604126Y290868D01*
X604037Y290801D01*
X603946Y290738D01*
X603853Y290677D01*
X603759Y290620D01*
X603662Y290567D01*
X603563Y290516D01*
X603462Y290469D01*
X603360Y290426D01*
X603257Y290386D01*
X603152Y290350D01*
X603046Y290318D01*
X602939Y290289D01*
X602831Y290264D01*
X602722Y290243D01*
X602613Y290226D01*
X602503Y290212D01*
X602392Y290203D01*
X602282Y290197D01*
X602171Y290195D01*
X602060Y290197D01*
X601950Y290203D01*
X601839Y290212D01*
X601729Y290226D01*
X601620Y290243D01*
X601511Y290264D01*
X601403Y290289D01*
X601296Y290318D01*
X601190Y290350D01*
X601085Y290386D01*
X600982Y290426D01*
X600880Y290469D01*
X600779Y290516D01*
X600680Y290567D01*
X600584Y290620D01*
X600489Y290677D01*
X600396Y290738D01*
X600305Y290801D01*
X600216Y290868D01*
X600130Y290938D01*
X600047Y291011D01*
X599965Y291086D01*
X599887Y291164D01*
X599812Y291246D01*
X599739Y291329D01*
X599669Y291415D01*
X599602Y291504D01*
X599539Y291595D01*
X599478Y291688D01*
X599421Y291783D01*
X599368Y291879D01*
X599317Y291978D01*
X599270Y292079D01*
X599227Y292181D01*
X599187Y292284D01*
X599151Y292389D01*
X599119Y292495D01*
X599090Y292602D01*
X599065Y292710D01*
X599044Y292819D01*
X599027Y292928D01*
X599013Y293038D01*
X599004Y293149D01*
X598998Y293259D01*
X598996Y293370D01*
X598996Y296545D01*
X598998Y296685D01*
X599004Y296825D01*
X599013Y296965D01*
X599027Y297104D01*
X599044Y297243D01*
X599065Y297381D01*
X599090Y297519D01*
X599119Y297656D01*
X599151Y297792D01*
X599188Y297927D01*
X599228Y298061D01*
X599271Y298194D01*
X599319Y298326D01*
X599369Y298457D01*
X599424Y298586D01*
X599482Y298713D01*
X599543Y298839D01*
X599608Y298963D01*
X599677Y299085D01*
X599748Y299205D01*
X599823Y299323D01*
X599901Y299440D01*
X599983Y299554D01*
X600067Y299665D01*
X600155Y299774D01*
X600245Y299881D01*
X600339Y299986D01*
X600435Y300087D01*
X600534Y300186D01*
X600635Y300282D01*
X600740Y300376D01*
X600847Y300466D01*
X600956Y300554D01*
X601067Y300638D01*
X601181Y300720D01*
X601298Y300798D01*
X601416Y300873D01*
X601536Y300944D01*
X601658Y301013D01*
X601782Y301078D01*
X601908Y301139D01*
X602035Y301197D01*
X602164Y301252D01*
X602295Y301302D01*
X602427Y301350D01*
X602560Y301393D01*
X602694Y301433D01*
X602829Y301470D01*
X602965Y301502D01*
X603102Y301531D01*
X603240Y301556D01*
X603378Y301577D01*
X603517Y301594D01*
X603656Y301608D01*
X603796Y301617D01*
X603936Y301623D01*
X604076Y301625D01*
M02*
