G04 EAGLE Gerber RS-274X export*
G75*
%MOMM*%
%FSLAX34Y34*%
%LPD*%
%INSolderpaste Top*%
%IPPOS*%
%AMOC8*
5,1,8,0,0,1.08239X$1,22.5*%
G01*
%ADD10R,0.700000X0.350000*%
%ADD11R,0.800000X1.200000*%
%ADD12C,0.230000*%
%ADD13C,0.200000*%


D10*
X530200Y437000D03*
X530200Y444500D03*
X530200Y452000D03*
X511200Y452000D03*
X511200Y444500D03*
X511200Y437000D03*
X415900Y437000D03*
X415900Y444500D03*
X415900Y452000D03*
X396900Y452000D03*
X396900Y444500D03*
X396900Y437000D03*
D11*
X397400Y368300D03*
X415400Y368300D03*
X448200Y279400D03*
X466200Y279400D03*
X517000Y279400D03*
X499000Y279400D03*
X524400Y368300D03*
X542400Y368300D03*
X542400Y520700D03*
X524400Y520700D03*
D12*
X477900Y360300D03*
X473900Y360300D03*
X469900Y360300D03*
X465900Y360300D03*
X461900Y360300D03*
X477900Y364300D03*
X473900Y364300D03*
X469900Y364300D03*
X465900Y364300D03*
X461900Y364300D03*
X477900Y368300D03*
X473900Y368300D03*
X469900Y368300D03*
X465900Y368300D03*
X461900Y368300D03*
X477900Y372300D03*
X473900Y372300D03*
X469900Y372300D03*
X465900Y372300D03*
X461900Y372300D03*
X477900Y376300D03*
X473900Y376300D03*
X469900Y376300D03*
X465900Y376300D03*
X461900Y376300D03*
D13*
X457900Y458500D03*
X457900Y446500D03*
X457900Y442500D03*
X457900Y438500D03*
X457900Y434500D03*
X457900Y430500D03*
X461900Y458500D03*
X461900Y454500D03*
X461900Y450500D03*
X461900Y446500D03*
X461900Y442500D03*
X461900Y438500D03*
X461900Y434500D03*
X461900Y430500D03*
X465900Y458500D03*
X465900Y454500D03*
X465900Y450500D03*
X465900Y446500D03*
X465900Y442500D03*
X465900Y438500D03*
X465900Y434500D03*
X465900Y430500D03*
X469900Y458500D03*
X469900Y454500D03*
X469900Y450500D03*
X469900Y438500D03*
X469900Y434500D03*
X469900Y430500D03*
X473900Y458500D03*
X473900Y454500D03*
X473900Y450500D03*
X473900Y438500D03*
X473900Y434500D03*
X473900Y430500D03*
X477900Y458500D03*
X477900Y454500D03*
X477900Y450500D03*
X477900Y446500D03*
X477900Y442500D03*
X477900Y438500D03*
X477900Y434500D03*
X477900Y430500D03*
X481900Y458500D03*
X481900Y454500D03*
X481900Y450500D03*
X481900Y446500D03*
X481900Y442500D03*
X481900Y438500D03*
X481900Y434500D03*
X481900Y430500D03*
M02*
