M48
;GenerationSoftware,Autodesk,EAGLE,9.6.2*%
;CreationDate,2022-10-14T18:12:37Z*%
FMAT,2
ICI,OFF
METRIC,TZ,000.000
T1C0.813
%
G90
M71
T1
X44450Y21590
X46990Y21590
X41910Y27940
X39370Y27940
X29210Y36830
X31750Y36830
X31750Y30480
X31750Y27940
X26670Y45720
X26670Y43180
X48260Y52070
X45720Y52070
X34290Y45720
X34290Y43180
X57150Y46990
X57150Y43180
X35560Y21590
X38100Y21590
X57150Y38100
X57150Y35560
X57150Y31750
X57150Y27940
M30